<svg width="10" height="9" viewBox="0 0 10 9" fill="none" xmlns="http://www.w3.org/2000/svg">
<path d="M10 5.625C10 5.72446 9.96098 5.81984 9.89153 5.89017C9.82207 5.96049 9.72787 6 9.62964 6H8.88893V6.75C8.88893 6.84946 8.84991 6.94484 8.78045 7.01517C8.711 7.08549 8.6168 7.125 8.51857 7.125C8.42035 7.125 8.32614 7.08549 8.25669 7.01517C8.18723 6.94484 8.14821 6.84946 8.14821 6.75V6H7.4075C7.30927 6 7.21507 5.96049 7.14562 5.89017C7.07616 5.81984 7.03714 5.72446 7.03714 5.625C7.03714 5.52554 7.07616 5.43016 7.14562 5.35983C7.21507 5.28951 7.30927 5.25 7.4075 5.25H8.14821V4.5C8.14821 4.40054 8.18723 4.30516 8.25669 4.23484C8.32614 4.16451 8.42035 4.125 8.51857 4.125C8.6168 4.125 8.711 4.16451 8.78045 4.23484C8.84991 4.30516 8.88893 4.40054 8.88893 4.5V5.25H9.62964C9.72787 5.25 9.82207 5.28951 9.89153 5.35983C9.96098 5.43016 10 5.52554 10 5.625ZM1.11142 1.875H1.85214V2.625C1.85214 2.72446 1.89116 2.81984 1.96061 2.89016C2.03007 2.96049 2.12427 3 2.2225 3C2.32072 3 2.41492 2.96049 2.48438 2.89016C2.55383 2.81984 2.59285 2.72446 2.59285 2.625V1.875H3.33357C3.43179 1.875 3.52599 1.83549 3.59545 1.76516C3.66491 1.69484 3.70392 1.59946 3.70392 1.5C3.70392 1.40054 3.66491 1.30516 3.59545 1.23484C3.52599 1.16451 3.43179 1.125 3.33357 1.125H2.59285V0.375C2.59285 0.275544 2.55383 0.180161 2.48438 0.109835C2.41492 0.0395089 2.32072 0 2.2225 0C2.12427 0 2.03007 0.0395089 1.96061 0.109835C1.89116 0.180161 1.85214 0.275544 1.85214 0.375V1.125H1.11142C1.0132 1.125 0.918997 1.16451 0.849541 1.23484C0.780086 1.30516 0.741066 1.40054 0.741066 1.5C0.741066 1.59946 0.780086 1.69484 0.849541 1.76516C0.918997 1.83549 1.0132 1.875 1.11142 1.875ZM7.03714 7.5H6.66678V7.125C6.66678 7.02554 6.62776 6.93016 6.55831 6.85983C6.48885 6.78951 6.39465 6.75 6.29643 6.75C6.1982 6.75 6.104 6.78951 6.03454 6.85983C5.96509 6.93016 5.92607 7.02554 5.92607 7.125V7.5H5.55571C5.45749 7.5 5.36328 7.53951 5.29383 7.60983C5.22437 7.68016 5.18535 7.77554 5.18535 7.875C5.18535 7.97446 5.22437 8.06984 5.29383 8.14017C5.36328 8.21049 5.45749 8.25 5.55571 8.25H5.92607V8.625C5.92607 8.72446 5.96509 8.81984 6.03454 8.89017C6.104 8.96049 6.1982 9 6.29643 9C6.39465 9 6.48885 8.96049 6.55831 8.89017C6.62776 8.81984 6.66678 8.72446 6.66678 8.625V8.25H7.03714C7.13537 8.25 7.22957 8.21049 7.29902 8.14017C7.36848 8.06984 7.4075 7.97446 7.4075 7.875C7.4075 7.77554 7.36848 7.68016 7.29902 7.60983C7.22957 7.53951 7.13537 7.5 7.03714 7.5ZM8.67181 2.25L2.2225 8.78016C2.0836 8.9207 1.89527 8.99965 1.6989 8.99965C1.50254 8.99965 1.31421 8.9207 1.17531 8.78016L0.21701 7.81078C0.148211 7.74114 0.0936347 7.65845 0.0563997 7.56744C0.0191648 7.47644 0 7.3789 0 7.28039C0 7.18188 0.0191648 7.08434 0.0563997 6.99334C0.0936347 6.90233 0.148211 6.81965 0.21701 6.75L6.66678 0.219844C6.73557 0.150182 6.81723 0.0949218 6.90711 0.0572201C6.99699 0.0195184 7.09332 0.000113368 7.19061 0.000113368C7.28789 0.000113368 7.38423 0.0195184 7.47411 0.0572201C7.56398 0.0949218 7.64565 0.150182 7.71443 0.219844L8.67181 1.18922C8.74061 1.25886 8.79518 1.34155 8.83242 1.43256C8.86965 1.52356 8.88882 1.6211 8.88882 1.71961C8.88882 1.81812 8.86965 1.91566 8.83242 2.00666C8.79518 2.09767 8.74061 2.18035 8.67181 2.25ZM8.14821 1.71984L7.19038 0.75L5.70895 2.25L6.66678 3.21984L8.14821 1.71984Z" fill="#0634BF"/>
</svg>
