<svg width="21" height="17" viewBox="0 0 21 17" fill="none" xmlns="http://www.w3.org/2000/svg">
<path d="M0.504793 7.57125C0.182496 7.89395 0.00146484 8.33138 0.00146484 8.78746C0.00146484 9.24354 0.182496 9.68097 0.504793 10.0037L6.99431 16.4955C7.15417 16.6553 7.34396 16.7822 7.55284 16.8687C7.76171 16.9552 7.98558 16.9997 8.21167 16.9997C8.43775 16.9997 8.66162 16.9552 8.8705 16.8687C9.07937 16.7822 9.26916 16.6553 9.42902 16.4955C9.58889 16.3356 9.7157 16.1458 9.80222 15.937C9.88874 15.7281 9.93327 15.5042 9.93327 15.2781C9.93327 15.052 9.88874 14.8282 9.80222 14.6193C9.7157 14.4104 9.58889 14.2206 9.42902 14.0608L5.87677 10.5085H19.1117C19.5681 10.5085 20.0059 10.3272 20.3286 10.0044C20.6514 9.68167 20.8327 9.24391 20.8327 8.78746C20.8327 8.33101 20.6514 7.89325 20.3286 7.57049C20.0059 7.24773 19.5681 7.06641 19.1117 7.06641H5.87677L9.42902 3.51415C9.75174 3.19129 9.93297 2.75345 9.93287 2.29696C9.93276 1.84047 9.75132 1.40272 9.42845 1.08001C9.10559 0.757301 8.66775 0.576064 8.21126 0.576172C7.75477 0.57628 7.31702 0.757723 6.99431 1.08059L0.504793 7.57125Z" fill="#338ACA"/>
</svg>
