<svg width="6" height="13" viewBox="0 0 6 13" fill="none" xmlns="http://www.w3.org/2000/svg">
<path d="M0.229439 0.764138C0.0825295 0.933317 0 1.16274 0 1.40196C0 1.64118 0.0825295 1.87061 0.229439 2.03978L4.10846 6.50545L0.229439 10.9711C0.0866928 11.1413 0.00770617 11.3691 0.00949192 11.6057C0.0112772 11.8422 0.0936918 12.0685 0.238985 12.2358C0.384278 12.403 0.580825 12.4979 0.786294 12.5C0.991761 12.502 1.18971 12.4111 1.33751 12.2468L5.77056 7.14327C5.91747 6.97409 6 6.74467 6 6.50545C6 6.26623 5.91747 6.0368 5.77056 5.86762L1.33751 0.764138C1.19055 0.595011 0.991266 0.5 0.783473 0.5C0.57568 0.5 0.376394 0.595011 0.229439 0.764138Z" fill="#3D8CC5"/>
</svg>
