<svg width="18" height="13" viewBox="0 0 18 13" fill="none" xmlns="http://www.w3.org/2000/svg">
<path d="M0.5 13V10.5625H2.2V1.625C2.2 1.17812 2.3666 0.795708 2.6998 0.47775C3.033 0.159791 3.43307 0.000541667 3.9 0H16.65V1.625H3.9V10.5625H9V13H0.5ZM11.55 13C11.3092 13 11.1074 12.922 10.9448 12.766C10.7822 12.61 10.7006 12.4172 10.7 12.1875V4.0625C10.7 3.83229 10.7816 3.63946 10.9448 3.484C11.108 3.32854 11.3097 3.25054 11.55 3.25H16.65C16.8908 3.25 17.0928 3.328 17.256 3.484C17.4192 3.64 17.5006 3.83283 17.5 4.0625V12.1875C17.5 12.4177 17.4184 12.6108 17.2552 12.7668C17.092 12.9228 16.8903 13.0005 16.65 13H11.55ZM12.4 10.5625H15.8V4.875H12.4V10.5625Z" fill="#3D8CC5"/>
</svg>
