<svg width="15" height="15" viewBox="0 0 15 15" fill="none" xmlns="http://www.w3.org/2000/svg">
<path d="M13.5 8.5H8.5V13.5C8.5 13.7652 8.39464 14.0196 8.20711 14.2071C8.01957 14.3946 7.76522 14.5 7.5 14.5C7.23478 14.5 6.98043 14.3946 6.79289 14.2071C6.60536 14.0196 6.5 13.7652 6.5 13.5V8.5H1.5C1.23478 8.5 0.98043 8.39464 0.792893 8.20711C0.605357 8.01957 0.5 7.76522 0.5 7.5C0.5 7.23478 0.605357 6.98043 0.792893 6.79289C0.98043 6.60536 1.23478 6.5 1.5 6.5H6.5V1.5C6.5 1.23478 6.60536 0.980429 6.79289 0.792893C6.98043 0.605357 7.23478 0.5 7.5 0.5C7.76522 0.5 8.01957 0.605357 8.20711 0.792893C8.39464 0.980429 8.5 1.23478 8.5 1.5V6.5H13.5C13.7652 6.5 14.0196 6.60536 14.2071 6.79289C14.3946 6.98043 14.5 7.23478 14.5 7.5C14.5 7.76522 14.3946 8.01957 14.2071 8.20711C14.0196 8.39464 13.7652 8.5 13.5 8.5Z" fill="white"/>
</svg>
