<svg width="14" height="15" viewBox="0 0 14 15" fill="none" xmlns="http://www.w3.org/2000/svg">
<path d="M1.1678 13.3324C1.1678 13.975 1.69017 14.5 2.33561 14.5H11.6698C12.3125 14.5 12.8376 13.9777 12.8376 13.3324V5.75H1.1678V13.3324ZM9.9195 7.5H11.0873V12.75H9.9195V7.5ZM6.41882 7.5H7.58663V12.75H6.41882V7.5ZM2.91814 7.5H4.08595V12.75H2.91814V7.5ZM13.4202 2.83242H9.9195V1.66758C9.9195 1.02227 9.3944 0.5 8.7517 0.5H5.25102C4.60831 0.5 4.08321 1.02227 4.08321 1.66758V2.83516H0.582535C0.259816 2.83242 0 3.09492 0 3.41758V4C0 4.32266 0.259816 4.58242 0.582535 4.58242H13.4174C13.7402 4.58242 14 4.32266 14 4V3.41758C14.0027 3.09492 13.7429 2.83242 13.4202 2.83242ZM8.7517 2.83242H5.25102V1.66758H8.7517V2.83242Z" fill="#626262"/>
</svg>
