<svg width="12" height="11" viewBox="0 0 12 11" fill="none" xmlns="http://www.w3.org/2000/svg">
<path d="M11.5946 2.77415L9.2068 0.402635C8.94721 0.144831 8.59514 0 8.22804 0C7.86093 0 7.50886 0.144831 7.24927 0.402635L0.4054 7.19984C0.145826 7.45766 0 7.80733 0 8.17193C0 8.53654 0.145826 8.88621 0.4054 9.14403L2.13915 10.866C2.18217 10.9086 2.23326 10.9424 2.28948 10.9655C2.3457 10.9885 2.40595 11.0002 2.46675 11H11.0755C11.1979 11 11.3152 10.9517 11.4018 10.8658C11.4883 10.7798 11.5369 10.6633 11.5369 10.5417C11.5369 10.4202 11.4883 10.3036 11.4018 10.2177C11.3152 10.1318 11.1979 10.0835 11.0755 10.0835H6.19033L11.5946 4.71834C11.8542 4.46052 12 4.11085 12 3.74625C12 3.38164 11.8542 3.03197 11.5946 2.77415ZM10.9411 4.06875L7.84564 7.14428L4.80668 4.12603L7.90332 1.05222C7.94617 1.00962 7.99706 0.975816 8.05307 0.952754C8.10909 0.929693 8.16913 0.917822 8.22977 0.917822C8.2904 0.917822 8.35044 0.929693 8.40646 0.952754C8.46247 0.975816 8.51336 1.00962 8.55621 1.05222L10.9429 3.4226C11.0293 3.50853 11.0779 3.62505 11.0779 3.74653C11.0779 3.86802 11.0293 3.98454 10.9429 4.07047L10.9411 4.06875Z" fill="#0634BF"/>
</svg>
