<svg width="10" height="13" viewBox="0 0 10 13" fill="none" xmlns="http://www.w3.org/2000/svg">
<path d="M6.24983 6.49919V11.7518C6.27482 11.9518 6.21233 12.1651 6.0686 12.3051C6.01079 12.3669 5.94212 12.4159 5.86652 12.4493C5.79092 12.4828 5.70988 12.5 5.62804 12.5C5.54619 12.5 5.46515 12.4828 5.38956 12.4493C5.31396 12.4159 5.24529 12.3669 5.18747 12.3051L3.9314 10.9652C3.86324 10.8942 3.81142 10.8073 3.77998 10.7113C3.74854 10.6153 3.73834 10.5129 3.75017 10.412V6.49919H3.73143L0.131924 1.57985C0.0304432 1.44089 -0.015347 1.26473 0.00455909 1.08987C0.0244652 0.915012 0.108449 0.755663 0.238159 0.646647C0.356893 0.553326 0.488125 0.5 0.625606 0.5H9.37439C9.51188 0.5 9.64311 0.553326 9.76184 0.646647C9.89155 0.755663 9.97553 0.915012 9.99544 1.08987C10.0153 1.26473 9.96956 1.44089 9.86808 1.57985L6.26857 6.49919H6.24983Z" fill="#0634BF"/>
</svg>
