<svg width="13" height="13" viewBox="0 0 13 13" fill="none" xmlns="http://www.w3.org/2000/svg">
<path d="M12.8253 2.94044C12.8053 2.87313 12.7683 2.81209 12.718 2.76315C12.6676 2.71421 12.6055 2.67902 12.5377 2.66094C12.4698 2.64245 12.3982 2.64219 12.3302 2.66016C12.2621 2.67813 12.2 2.71371 12.1501 2.76331L10.0246 4.84088L8.4695 4.52969L8.15994 2.98025L10.309 0.879938C10.3593 0.830885 10.3961 0.769618 10.4156 0.702123C10.4352 0.634627 10.4369 0.563212 10.4206 0.494853C10.4043 0.426494 10.3706 0.363531 10.3227 0.312114C10.2748 0.260696 10.2143 0.222584 10.1473 0.2015C9.7567 0.0729524 9.34869 0.00499771 8.9375 0C6.69744 0 4.875 1.82244 4.875 4.0625C4.875 4.32494 4.90588 4.59063 4.97087 4.88313C4.51425 5.25931 4.08037 5.5835 3.58881 5.95075C2.886 6.47563 2.08975 7.06956 1.00344 7.98688C0.691131 8.25599 0.440012 8.5888 0.266941 8.96297C0.0938705 9.33714 0.00285311 9.744 0 10.1562C0 11.7244 1.27562 13 2.84375 13C3.25652 12.9987 3.66401 12.9071 4.03764 12.7317C4.41127 12.5562 4.74199 12.3012 5.00662 11.9844C5.72588 11.1397 6.4153 10.2701 7.07363 9.37706C7.43275 8.89688 7.74963 8.47437 8.11606 8.02831C8.40856 8.09412 8.67506 8.125 8.9375 8.125C11.1776 8.125 13 6.30256 13 4.0625C12.9963 3.68201 12.9374 3.30406 12.8253 2.94044ZM2.84375 10.9688C2.62826 10.9688 2.4216 10.8831 2.26923 10.7308C2.11685 10.5784 2.03125 10.3717 2.03125 10.1562C2.03125 9.94076 2.11685 9.7341 2.26923 9.58173C2.4216 9.42935 2.62826 9.34375 2.84375 9.34375C3.05924 9.34375 3.2659 9.42935 3.41827 9.58173C3.57065 9.7341 3.65625 9.94076 3.65625 10.1562C3.65625 10.3717 3.57065 10.5784 3.41827 10.7308C3.2659 10.8831 3.05924 10.9688 2.84375 10.9688Z" fill="#3D8CC5"/>
</svg>
