<svg width="15" height="15" viewBox="0 0 15 15" fill="none" xmlns="http://www.w3.org/2000/svg">
<path d="M5.58458 14.5L5.30597 12.26C5.15506 12.2017 5.01297 12.1317 4.8797 12.05C4.74643 11.9683 4.61572 11.8808 4.48756 11.7875L2.41542 12.6625L0.5 9.3375L2.29353 7.9725C2.28192 7.89083 2.27612 7.8122 2.27612 7.7366V7.2641C2.27612 7.18803 2.28192 7.10917 2.29353 7.0275L0.5 5.6625L2.41542 2.3375L4.48756 3.2125C4.61526 3.11917 4.74876 3.03167 4.88806 2.95C5.02736 2.86833 5.16667 2.79833 5.30597 2.74L5.58458 0.5H9.41542L9.69403 2.74C9.84494 2.79833 9.98726 2.86833 10.121 2.95C10.2547 3.03167 10.3852 3.11917 10.5124 3.2125L12.5846 2.3375L14.5 5.6625L12.7065 7.0275C12.7181 7.10917 12.7239 7.18803 12.7239 7.2641V7.7359C12.7239 7.81197 12.7123 7.89083 12.6891 7.9725L14.4826 9.3375L12.5672 12.6625L10.5124 11.7875C10.3847 11.8808 10.2512 11.9683 10.1119 12.05C9.97264 12.1317 9.83333 12.2017 9.69403 12.26L9.41542 14.5H5.58458ZM7.53483 9.95C8.20813 9.95 8.78275 9.71083 9.25871 9.2325C9.73466 8.75417 9.97264 8.17667 9.97264 7.5C9.97264 6.82333 9.73466 6.24583 9.25871 5.7675C8.78275 5.28917 8.20813 5.05 7.53483 5.05C6.84992 5.05 6.27227 5.28917 5.80189 5.7675C5.33151 6.24583 5.09655 6.82333 5.09702 7.5C5.09702 8.17667 5.33221 8.75417 5.80259 9.2325C6.27297 9.71083 6.85038 9.95 7.53483 9.95Z" fill="#111111"/>
</svg>
