<svg width="16" height="17" viewBox="0 0 16 17" fill="none" xmlns="http://www.w3.org/2000/svg">
<path d="M12.8396 7.72761L13.1932 7.37413L12.1324 6.31368L10.1893 4.3711L9.12856 3.31065L8.77498 3.66413L8.06782 4.3711L1.8348 10.6024C1.50938 10.9277 1.27157 11.3313 1.14015 11.7723L0.0324789 15.5386C-0.0457468 15.8014 0.0262208 16.0861 0.223349 16.28C0.420478 16.4739 0.702091 16.5459 0.964929 16.4708L4.72915 15.3634C5.17034 15.2321 5.57398 14.9943 5.8994 14.669L12.1324 8.4377L12.8396 7.72761ZM5.00763 12.9954L4.72289 13.7055C4.59773 13.8025 4.45692 13.8744 4.30673 13.9214L1.85983 14.6408L2.57951 12.1978C2.62331 12.0445 2.69841 11.9037 2.79541 11.7817L3.5057 11.497V12.4981C3.5057 12.7733 3.73099 12.9986 4.00634 12.9986H5.00763V12.9954ZM11.3502 1.08653L10.8996 1.54011L10.1924 2.24708L9.83572 2.60056L10.8965 3.66101L12.8396 5.60359L13.9003 6.66404L14.2539 6.31056L14.9611 5.60359L15.4148 5.15001C16.197 4.36797 16.197 3.10106 15.4148 2.31902L14.1851 1.08653C13.4028 0.30449 12.1356 0.30449 11.3533 1.08653H11.3502ZM9.86701 6.34184L5.36121 10.8464C5.16721 11.0403 4.84805 11.0403 4.65405 10.8464C4.46005 10.6524 4.46005 10.3334 4.65405 10.1394L9.15985 5.63487C9.35385 5.44093 9.67301 5.44093 9.86701 5.63487C10.061 5.82882 10.061 6.14789 9.86701 6.34184Z" fill="white"/>
</svg>
