<svg width="50" height="51" viewBox="0 0 50 51" fill="none" xmlns="http://www.w3.org/2000/svg">
<path fill-rule="evenodd" clip-rule="evenodd" d="M25 0.5C11.215 0.5 0 11.715 0 25.5C0 39.285 11.215 50.5 25 50.5C38.785 50.5 50 39.285 50 25.5C50 11.715 38.785 0.5 25 0.5ZM25 49.355C11.8475 49.355 1.1475 38.6525 1.1475 25.5C1.1475 12.3475 11.8475 1.645 25 1.645C38.1525 1.645 48.855 12.345 48.855 25.5C48.855 38.65 38.155 49.355 25 49.355ZM3.555 25.5C3.55449 29.5274 4.68795 33.4735 6.82565 36.8868C8.96334 40.3 12.0189 43.0424 15.6425 44.8L5.41 16.775C4.1846 19.5204 3.55249 22.4935 3.555 25.5ZM39.48 24.42C39.48 21.77 38.525 19.935 37.71 18.505C36.6225 16.7375 35.6025 15.2425 35.6025 13.475C35.6025 11.505 37.0975 9.67 39.2025 9.67C39.3 9.67 39.39 9.68 39.4825 9.6875C35.5337 6.05714 30.364 4.04475 25 4.05C21.4455 4.04823 17.9463 4.93096 14.818 6.61864C11.6897 8.30631 9.03045 10.7459 7.08 13.7175C7.585 13.7325 8.06 13.7425 8.4625 13.7425C10.705 13.7425 14.1775 13.47 14.1775 13.47C15.3325 13.4025 15.47 15.1 14.315 15.2375C14.315 15.2375 13.1525 15.375 11.86 15.4425L19.67 38.6725L24.3625 24.5975L21.0225 15.4425C19.8675 15.375 18.7725 15.2375 18.7725 15.2375C17.6175 15.17 17.7525 13.4025 18.91 13.47C18.91 13.47 22.45 13.745 24.5575 13.745C26.8 13.745 30.2725 13.47 30.2725 13.47C31.43 13.4025 31.565 15.1 30.41 15.2375C30.41 15.2375 29.2475 15.375 27.955 15.4425L35.705 38.495L37.8475 31.3475C38.7725 28.38 39.4775 26.25 39.4775 24.415M25.3775 27.3725L18.9425 46.0725C23.2626 47.3467 27.8744 47.2269 32.1225 45.73C32.0625 45.6354 32.0106 45.5359 31.9675 45.4325L25.3775 27.3725ZM43.82 15.2075C43.9125 15.8925 43.965 16.625 43.965 17.4125C43.965 19.5875 43.5575 22.035 42.3325 25.095L35.7825 44.035C39.0266 42.1491 41.7189 39.4447 43.59 36.192C45.4612 32.9393 46.4456 29.2525 46.445 25.5C46.4509 21.9036 45.548 18.3615 43.82 15.2075Z" fill="#0634BF"/>
</svg>
