<svg width="46" height="47" viewBox="0 0 46 47" fill="none" xmlns="http://www.w3.org/2000/svg">
<g id="streamline:mail-sign-at-email-at-sign-read-address" clip-path="url(#clip0_416_2403)">
<g id="Group">
<path id="Vector" d="M33.0214 23.5021C33.0211 25.4446 32.4469 27.3437 31.3709 28.9609C30.2949 30.5782 28.765 31.8415 26.9734 32.5921C25.1818 33.3428 23.2083 33.5473 21.3009 33.1801C19.3934 32.8129 17.6369 31.8903 16.2521 30.5281C14.8672 29.166 13.9157 27.425 13.517 25.5238C13.1183 23.6227 13.2902 21.6461 14.0111 19.8423C14.7321 18.0386 15.9699 16.488 17.5691 15.3854C19.1684 14.2828 21.0578 13.6773 23 13.6449C24.3082 13.6231 25.6077 13.862 26.8226 14.3476C28.0376 14.8332 29.1437 15.5558 30.0765 16.4733C31.0093 17.3908 31.7501 18.4848 32.2557 19.6916C32.7613 20.8983 33.0216 22.1937 33.0214 23.5021Z" stroke="#111111" stroke-width="3.28571" stroke-linecap="round" stroke-linejoin="round"/>
<path id="Vector_2" d="M33.0214 23.5007V27.7721C33.0214 39.2393 50.9943 28.4293 41.5643 12.855C39.6654 9.61214 36.9553 6.9193 33.7004 5.04123C30.4455 3.16317 26.7578 2.16455 23 2.14355C19.843 2.1533 16.7274 2.86284 13.8774 4.2211C11.0275 5.57936 8.51417 7.55255 6.51829 9.99865C4.52241 12.4447 3.09366 15.3029 2.33486 18.3674C1.57606 21.4319 1.5061 24.6265 2.13001 27.7213C2.75392 30.8161 4.05617 33.734 5.94305 36.2652C7.82992 38.7963 10.2545 40.8776 13.0422 42.3593C15.8299 43.8411 18.9115 44.6863 22.0651 44.8343C25.2186 44.9822 28.3658 44.4292 31.28 43.215" stroke="#111111" stroke-width="3.28571" stroke-linecap="round" stroke-linejoin="round"/>
</g>
<path id="Vector_3" d="M36.7783 38.406L33.0314 34.2376C32.9602 34.1617 32.8761 34.1022 32.7841 34.0625C32.6017 33.9792 32.397 33.9792 32.2146 34.0625C32.1226 34.1022 32.0386 34.1617 31.9673 34.2376L28.2204 38.406C28.1505 38.4837 28.0951 38.576 28.0573 38.6776C28.0195 38.7791 28 38.888 28 38.9979C28 39.2199 28.0793 39.4328 28.2204 39.5898C28.3615 39.7468 28.5529 39.835 28.7524 39.835C28.952 39.835 29.1434 39.7468 29.2845 39.5898L31.75 36.8387V43.1663C31.75 43.3874 31.8289 43.5995 31.9695 43.7558C32.11 43.9122 32.3006 44 32.4994 44C32.6981 44 32.8887 43.9122 33.0293 43.7558C33.1698 43.5995 33.2487 43.3874 33.2487 43.1663V36.8387L35.7142 39.5898C35.7839 39.668 35.8668 39.73 35.9581 39.7723C36.0494 39.8146 36.1473 39.8364 36.2463 39.8364C36.3452 39.8364 36.4431 39.8146 36.5345 39.7723C36.6258 39.73 36.7087 39.668 36.7783 39.5898C36.8486 39.5123 36.9043 39.4201 36.9424 39.3185C36.9804 39.2169 37 39.108 37 38.9979C37 38.8879 36.9804 38.7789 36.9424 38.6773C36.9043 38.5757 36.8486 38.4835 36.7783 38.406Z" fill="#0634BF"/>
</g>
<defs>
<clipPath id="clip0_416_2403">
<rect width="46" height="46" fill="white" transform="translate(0 0.5)"/>
</clipPath>
</defs>
</svg>
