<svg width="44" height="49" viewBox="0 0 44 49" fill="none" xmlns="http://www.w3.org/2000/svg">
<g id="Group 2608612">
<path id="Vector" d="M21.973 0.25C9.85698 0.25 0 10.1076 0 22.2237C0 33.6122 8.77633 43.1365 20.0618 44.1103L15.7111 46.3156C15.1739 46.6103 14.8541 47.2734 15.1723 47.7971L15.3262 48.1949C15.646 48.7186 16.3386 48.9043 16.8744 48.6109L24.1358 44.8931C24.1449 44.887 24.1547 44.8886 24.1639 44.8825L24.6512 44.6157C24.9202 44.468 25.0983 44.2262 25.1695 43.9572C25.2438 43.6882 25.2097 43.3889 25.0498 43.1282L24.7611 42.6546C24.7566 42.6454 24.7474 42.6394 24.7421 42.6311L20.2573 35.6227C19.939 35.0991 19.2479 34.9134 18.7091 35.2067L18.3567 35.4522C17.8194 35.7455 17.7838 36.5033 18.1021 37.0255L20.7484 41.1306C20.734 41.1299 20.7211 41.1246 20.7074 41.1238C10.7951 40.4736 3.03124 32.1702 3.03124 22.2238C3.03129 11.7787 11.5287 3.28129 21.973 3.28129C32.4188 3.28129 40.964 11.7787 40.964 22.2238C40.964 28.2379 38.2018 33.7617 33.3858 37.3787C32.7167 37.8819 32.5818 38.8323 33.0843 39.5014C33.5874 40.1721 34.5378 40.3055 35.207 39.8031C40.7929 35.607 43.9961 29.1996 43.9961 22.2239C43.9953 10.1078 34.0899 0.25 21.973 0.25Z" fill="#111111"/>
<g id="Group 2608611">
<path id="Vector_2" d="M29.5125 16H16.5439C15.6912 16 15 16.5968 15 17.333V25.3309C15 26.067 15.6912 26.6638 16.5439 26.6638H29.5125C30.3651 26.6638 31.0563 26.067 31.0563 25.3309V17.333C31.0563 16.5968 30.3651 16 29.5125 16Z" fill="white" stroke="#0634BF" stroke-width="1.41674" stroke-linecap="round" stroke-linejoin="round"/>
<g id="Vector_3">
<path d="M17.453 18.1318L22.9166 21.8157L28.3802 18.1318" fill="white"/>
<path d="M17.453 18.1318L22.9166 21.8157L28.3802 18.1318" stroke="#0634BF" stroke-width="1.41674" stroke-linecap="round" stroke-linejoin="round"/>
</g>
</g>
</g>
</svg>
