<svg width="46" height="47" viewBox="0 0 46 47" fill="none" xmlns="http://www.w3.org/2000/svg">
<g id="streamline:mail-sign-at-email-at-sign-read-address" clip-path="url(#clip0_415_2413)">
<g id="Group">
<path id="Vector" d="M33.0214 23.5021C33.0212 25.4446 32.447 27.3437 31.3709 28.9609C30.2949 30.5782 28.765 31.8415 26.9734 32.5921C25.1818 33.3428 23.2084 33.5473 21.3009 33.1801C19.3934 32.8129 17.6369 31.8903 16.2521 30.5281C14.8672 29.166 13.9157 27.425 13.517 25.5238C13.1183 23.6227 13.2902 21.6461 14.0112 19.8423C14.7321 18.0386 15.9699 16.488 17.5691 15.3854C19.1684 14.2828 21.0578 13.6773 23 13.6449C24.3082 13.6231 25.6077 13.862 26.8226 14.3476C28.0376 14.8332 29.1437 15.5558 30.0765 16.4733C31.0093 17.3908 31.7501 18.4848 32.2557 19.6916C32.7613 20.8983 33.0216 22.1937 33.0214 23.5021Z" stroke="#111111" stroke-width="3.28571" stroke-linecap="round" stroke-linejoin="round"/>
<path id="Vector_2" d="M33.0214 23.5007V27.7721C33.0214 39.2393 50.9943 28.4293 41.5643 12.855C39.6654 9.61214 36.9553 6.9193 33.7004 5.04123C30.4455 3.16317 26.7578 2.16455 23 2.14355C19.843 2.1533 16.7274 2.86284 13.8775 4.2211C11.0275 5.57936 8.51418 7.55255 6.5183 9.99865C4.52243 12.4447 3.09367 15.3029 2.33488 18.3674C1.57608 21.4319 1.50612 24.6265 2.13002 27.7213C2.75393 30.8161 4.05619 33.734 5.94306 36.2652C7.82994 38.7963 10.2545 40.8776 13.0422 42.3593C15.8299 43.8411 18.9115 44.6863 22.0651 44.8343C25.2186 44.9822 28.3658 44.4292 31.28 43.215" stroke="#111111" stroke-width="3.28571" stroke-linecap="round" stroke-linejoin="round"/>
</g>
</g>
<defs>
<clipPath id="clip0_415_2413">
<rect width="46" height="46" fill="white" transform="translate(0 0.5)"/>
</clipPath>
</defs>
</svg>
