<svg width="37" height="55" viewBox="0 0 37 55" fill="none" xmlns="http://www.w3.org/2000/svg">
<path id="feFilter2" d="M32.375 9.50875V4.95312H4.625V9.50875L18.5 27.5139L32.375 9.51106V9.50875ZM20.8125 31.5469V50.0469L16.1875 54.6719V31.5469L1.93787 13.2735C1.33876 12.8458 0.850388 12.2813 0.513337 11.6269C0.176286 10.9725 0.000297099 10.2472 0 9.51106V4.95312C0 3.7265 0.487275 2.55011 1.35463 1.68276C2.22199 0.8154 3.39837 0.328125 4.625 0.328125H32.375C33.6016 0.328125 34.778 0.8154 35.6454 1.68276C36.5127 2.55011 37 3.7265 37 4.95312V9.50875C37.0001 10.2452 36.8243 10.9711 36.4872 11.6259C36.1501 12.2807 35.6616 12.8456 35.0621 13.2735L20.8125 31.5469Z" fill="#111111"/>
</svg>
