<svg width="53" height="34" viewBox="0 0 53 34" fill="none" xmlns="http://www.w3.org/2000/svg">
<path d="M48.2778 2H4.72222C3.21878 2 2 2.97005 2 4.16667V30.1667C2 31.3633 3.21878 32.3333 4.72222 32.3333H48.2778C49.7812 32.3333 51 31.3633 51 30.1667V4.16667C51 2.97005 49.7812 2 48.2778 2Z" stroke="#000310" stroke-width="3" stroke-linecap="round"/>
<path d="M2 5.25L26.5 17.1667L51 5.25" stroke="#000310" stroke-width="3" stroke-linecap="round"/>
<path d="M26.9671 16.7532C26.6748 16.9076 26.3252 16.9076 26.0329 16.7532L3.56651 4.88419C2.64417 4.39692 2.99049 3 4.03363 3H48.9664C50.0095 3 50.3558 4.39692 49.4335 4.88419L26.9671 16.7532Z" fill="#0634BF"/>
</svg>
