<svg width="45" height="45" viewBox="0 0 45 45" fill="none" xmlns="http://www.w3.org/2000/svg">
<path id="Vector" fill-rule="evenodd" clip-rule="evenodd" d="M35.8367 3.50184C34.9404 3.15419 33.965 3.0667 33.0216 3.24931L32.4419 3.36085V6.84358C33.9572 6.55291 35.5232 6.69433 36.9628 7.25182C37.8586 7.59905 38.8298 7.68533 39.7674 7.50435V4.01741C38.4939 4.18575 37.1988 4.03093 36 3.56707L35.8367 3.50184ZM32.4419 10.0569L33.0216 9.94331C33.965 9.76069 34.9404 9.84819 35.8367 10.1958C37.4016 10.8016 39.1126 10.9146 40.7428 10.5199L40.883 10.4862C42.0698 10.2 42.907 9.13103 42.907 7.90207V3.23038C42.907 1.61001 41.4 0.418938 39.8344 0.797724C38.9365 1.01447 37.9926 0.953448 37.1302 0.618853L36.9628 0.555722C35.5192 -0.00345284 33.9485 -0.144167 32.4293 0.149579L31.4121 0.345285C30.8186 0.460178 30.2833 0.779271 29.8983 1.24776C29.5133 1.71625 29.3026 2.3049 29.3023 2.91262V10.2779H12.0349C11.9394 10.2777 11.8442 10.2861 11.7502 10.3032C10.2466 10.1981 8.73745 10.4052 7.31677 10.9116C5.89609 11.4179 4.59423 12.2128 3.49213 13.2466C2.39004 14.2805 1.51128 15.5312 0.910513 16.9211C0.309747 18.3111 -0.000181908 19.8104 8.01002e-08 21.3258V32.4096C8.01002e-08 34.0744 0.657794 35.6711 1.82868 36.8483C2.40844 37.4312 3.09671 37.8936 3.85421 38.2091C4.6117 38.5245 5.42358 38.6869 6.24349 38.6869H17.7907V43.4217C17.7907 43.8403 17.9561 44.2417 18.2505 44.5377C18.5449 44.8337 18.9441 45 19.3605 45C19.7768 45 20.1761 44.8337 20.4705 44.5377C20.7648 44.2417 20.9302 43.8403 20.9302 43.4217V38.6869H26.1628V43.4217C26.1628 43.8403 26.3282 44.2417 26.6226 44.5377C26.917 44.8337 27.3162 45 27.7326 45C28.1489 45 28.5482 44.8337 28.8426 44.5377C29.1369 44.2417 29.3023 43.8403 29.3023 43.4217V38.6869H38.8109C39.6237 38.6869 40.4285 38.5259 41.1794 38.2132C41.9303 37.9005 42.6126 37.4422 43.1873 36.8643C43.762 36.2865 44.2179 35.6005 44.5289 34.8456C44.8399 34.0906 45 33.2814 45 32.4643V21.3258C45 15.2232 40.0814 10.2779 34.0116 10.2779H32.4419V10.0569ZM29.3023 13.4324V20.2737C29.3023 20.6922 29.4677 21.0937 29.7621 21.3897C30.0565 21.6857 30.4558 21.8519 30.8721 21.8519C31.2884 21.8519 31.6877 21.6857 31.9821 21.3897C32.2765 21.0937 32.4419 20.6922 32.4419 20.2737V13.4345H34.0116C36.0933 13.4345 38.0897 14.2659 39.5616 15.7458C41.0335 17.2257 41.8605 19.2329 41.8605 21.3258V32.4643C41.8605 34.1562 40.4958 35.5303 38.8109 35.5303H21.9767V21.3258C21.9767 18.2324 20.7147 15.4378 18.6781 13.4345L29.3023 13.4324ZM18.8372 35.5282V21.3258C18.8372 19.2329 18.0103 17.2257 16.5383 15.7458C15.0664 14.2659 13.07 13.4345 10.9884 13.4345C8.90673 13.4345 6.91035 14.2659 5.43841 15.7458C3.96646 17.2257 3.13953 19.2329 3.13953 21.3258V32.4096C3.13953 34.133 4.5293 35.5303 6.24349 35.5303L18.8372 35.5282ZM6.27907 30.7934C6.27907 30.3748 6.44446 29.9734 6.73884 29.6774C7.03323 29.3814 7.43251 29.2151 7.84884 29.2151H14.1279C14.5442 29.2151 14.9435 29.3814 15.2379 29.6774C15.5323 29.9734 15.6977 30.3748 15.6977 30.7934C15.6977 31.212 15.5323 31.6134 15.2379 31.9094C14.9435 32.2054 14.5442 32.3717 14.1279 32.3717H7.84884C7.43251 32.3717 7.03323 32.2054 6.73884 31.9094C6.44446 31.6134 6.27907 31.212 6.27907 30.7934Z" fill="#111111"/>
</svg>
