<svg width="54" height="45" viewBox="0 0 54 45" fill="none" xmlns="http://www.w3.org/2000/svg">
<g id="Group 2608609">
<path id="Vector" d="M36.1 42.8545H1L0 38.1212C1 38.1212 1 38.1219 0.999999 38.1226L1.00023 38.1144C1.00056 38.1016 1.00133 38.0787 1.00308 38.0463C1.00658 37.9813 1.01399 37.8785 1.02962 37.7433C1.06091 37.4725 1.12489 37.0738 1.25536 36.5898C1.51631 35.622 2.04081 34.3216 3.09624 33.0168C5.17746 30.4438 9.49191 27.6546 18.55 27.6546C27.6081 27.6546 31.9225 30.4438 34.0038 33.0168C35.0592 34.3216 35.5837 35.622 35.8446 36.5898C35.9751 37.0738 36.0391 37.4725 36.0704 37.7433C36.086 37.8785 36.0934 37.9813 36.0969 38.0463C36.0987 38.0787 36.0994 38.1016 36.0998 38.1144L36.1 38.1226L36.1 38.1238L36.1 38.1252V42.8545ZM52 42.8545H43.4V38.1212V38.1032L43.3993 38.0852C43.3143 35.7242 42.7519 33.4093 41.7491 31.303C41.1721 30.0909 40.4567 28.9637 39.6212 27.9472C45.5731 28.8548 48.6127 31.2339 50.1866 33.3774C51.0999 34.6214 51.5539 35.8315 51.7796 36.7239C51.8924 37.1699 51.9476 37.5345 51.9746 37.7808C51.988 37.9038 51.9944 37.9968 51.9974 38.0553C51.9989 38.0845 51.9995 38.1049 51.9998 38.1161L52 38.1226L52 38.1237L52 38.1251V42.8545ZM34.444 1.85464H34.45C36.6182 1.85464 38.7151 2.78565 40.2741 4.47214C41.8356 6.16127 42.725 8.46791 42.725 10.8879C42.725 13.308 41.8356 15.6146 40.2741 17.3037C38.7151 18.9902 36.6182 19.9212 34.45 19.9212L34.444 19.9213C33.1389 19.9291 31.852 19.5871 30.6965 18.9259C32.0776 16.5113 32.8107 13.7287 32.8107 10.8879C32.8107 8.04716 32.0776 5.2646 30.6965 2.84998C31.852 2.18883 33.1389 1.84677 34.444 1.85464ZM36.1 38.1255V38.1257C36.1 38.1263 36.1 38.1262 36.1 38.1255ZM25.4111 5.83925C26.3303 7.32747 26.825 9.08462 26.825 10.8879C26.825 13.308 25.9356 15.6146 24.3741 17.3037C22.8151 18.9902 20.7182 19.9212 18.55 19.9212C16.9317 19.9212 15.3424 19.4025 13.9829 18.4199C12.6222 17.4364 11.5505 16.0299 10.9149 14.3699C10.2791 12.7095 10.1118 10.8786 10.4367 9.11139C10.7616 7.34437 11.562 5.73115 12.7259 4.47214C13.889 3.21395 15.361 2.36716 16.9509 2.02505C18.5399 1.68313 20.188 1.85774 21.6905 2.53096C23.1942 3.20473 24.4922 4.35165 25.4111 5.83925Z" stroke="black" stroke-width="2"/>
<g id="Group 2608608">
<path id="Vector_2" d="M51.3654 32.8545H37.6346C36.7318 32.8545 36 33.4864 36 34.2658V42.7337C36 43.5132 36.7318 44.1451 37.6346 44.1451H51.3654C52.2682 44.1451 53 43.5132 53 42.7337V34.2658C53 33.4864 52.2682 32.8545 51.3654 32.8545Z" fill="white" stroke="#0634BF" stroke-width="1.5" stroke-linecap="round" stroke-linejoin="round"/>
<g id="Vector_3">
<path d="M38.5972 35.1123L44.382 39.0127L50.1667 35.1123" fill="white"/>
<path d="M38.5972 35.1123L44.382 39.0127L50.1667 35.1123" stroke="#0634BF" stroke-width="1.5" stroke-linecap="round" stroke-linejoin="round"/>
</g>
</g>
</g>
</svg>
