<svg width="36" height="40" viewBox="0 0 36 40" fill="none" xmlns="http://www.w3.org/2000/svg">
<g id="Group 2608610">
<path id="Vector" fill-rule="evenodd" clip-rule="evenodd" d="M29.5 3.39771C30.163 3.39771 30.7989 3.64734 31.2678 4.09169C31.7366 4.53605 32 5.13872 32 5.76712C32 6.39553 31.7366 6.9982 31.2678 7.44255C30.7989 7.8869 30.163 8.13654 29.5 8.13654C28.837 8.13654 28.2011 7.8869 27.7322 7.44255C27.2634 6.9982 27 6.39553 27 5.76712C27 5.13872 27.2634 4.53605 27.7322 4.09169C28.2011 3.64734 28.837 3.39771 29.5 3.39771ZM35 5.76712C35.0004 4.50866 34.5205 3.29253 33.6487 2.34325C32.777 1.39397 31.5724 0.775631 30.2572 0.60238C28.942 0.42913 27.6051 0.712666 26.4932 1.40065C25.3814 2.08863 24.5697 3.1346 24.208 4.34547H8.5C6.24566 4.34547 4.08365 5.19423 2.48959 6.70503C0.895535 8.21582 0 10.2649 0 12.4015C0 14.5381 0.895535 16.5871 2.48959 18.0979C4.08365 19.6087 6.24566 20.4575 8.5 20.4575H26.5C27.9587 20.4575 29.3576 21.0067 30.3891 21.9843C31.4205 22.9618 32 24.2877 32 25.6702C32 27.0527 31.4205 28.3786 30.3891 29.3561C29.3576 30.3337 27.9587 30.8829 26.5 30.8829H5.12L6.56 29.5181C6.70737 29.388 6.82558 29.231 6.90756 29.0566C6.98955 28.8823 7.03363 28.694 7.03718 28.5031C7.04074 28.3122 7.00369 28.1226 6.92825 27.9456C6.8528 27.7686 6.74051 27.6078 6.59808 27.4728C6.45564 27.3378 6.28597 27.2314 6.09919 27.1599C5.91242 27.0884 5.71236 27.0532 5.51096 27.0566C5.30955 27.06 5.11092 27.1018 4.92692 27.1795C4.74292 27.2572 4.57732 27.3692 4.44 27.5089L0.439999 31.2999C0.1591 31.5665 0.00131989 31.9278 0.00131989 32.3046C0.00131989 32.6813 0.1591 33.0426 0.439999 33.3092L4.44 37.1003C4.57732 37.2399 4.74292 37.352 4.92692 37.4297C5.11092 37.5074 5.30955 37.5491 5.51096 37.5525C5.71236 37.5559 5.91242 37.5208 6.09919 37.4493C6.28597 37.3778 6.45564 37.2713 6.59808 37.1363C6.74051 37.0013 6.8528 36.8405 6.92825 36.6635C7.00369 36.4865 7.04074 36.2969 7.03718 36.106C7.03363 35.9151 6.98955 35.7269 6.90756 35.5525C6.82558 35.3781 6.70737 35.2211 6.56 35.091L5.12 33.7262H26.5C28.7543 33.7262 30.9163 32.8775 32.5104 31.3667C34.1045 29.8559 35 27.8068 35 25.6702C35 23.5336 34.1045 21.4845 32.5104 19.9737C30.9163 18.4629 28.7543 17.6142 26.5 17.6142H8.5C7.04131 17.6142 5.64236 17.065 4.61091 16.0874C3.57946 15.1099 3 13.784 3 12.4015C3 11.019 3.57946 9.69311 4.61091 8.71554C5.64236 7.73797 7.04131 7.18877 8.5 7.18877H24.208C24.5725 8.39695 25.385 9.43975 26.4962 10.1253C27.6073 10.8109 28.9422 11.0932 30.2555 10.9202C31.5687 10.7472 32.7718 10.1306 33.6436 9.1838C34.5153 8.23701 34.997 7.02371 35 5.76712Z" fill="#111111"/>
<g id="Group 2608608">
<path id="Vector_2" d="M33.3654 27.1572H19.6346C18.7318 27.1572 18 27.7891 18 28.5685V37.0365C18 37.8159 18.7318 38.4478 19.6346 38.4478H33.3654C34.2682 38.4478 35 37.8159 35 37.0365V28.5685C35 27.7891 34.2682 27.1572 33.3654 27.1572Z" fill="white" stroke="#0634BF" stroke-width="1.5" stroke-linecap="round" stroke-linejoin="round"/>
<g id="Vector_3">
<path d="M20.5972 29.415L26.382 33.3154L32.1667 29.415" fill="white"/>
<path d="M20.5972 29.415L26.382 33.3154L32.1667 29.415" stroke="#0634BF" stroke-width="1.5" stroke-linecap="round" stroke-linejoin="round"/>
</g>
</g>
</g>
</svg>
