<svg width="32" height="43" viewBox="0 0 32 43" fill="none" xmlns="http://www.w3.org/2000/svg">
<path id="Vector" d="M16 32.5C14.9391 32.5 13.9217 32.0786 13.1716 31.3284C12.4214 30.5783 12 29.5609 12 28.5C12 26.28 13.78 24.5 16 24.5C17.0609 24.5 18.0783 24.9214 18.8284 25.6716C19.5786 26.4217 20 27.4391 20 28.5C20 29.5609 19.5786 30.5783 18.8284 31.3284C18.0783 32.0786 17.0609 32.5 16 32.5ZM28 38.5V18.5H4V38.5H28ZM28 14.5C29.0609 14.5 30.0783 14.9214 30.8284 15.6716C31.5786 16.4217 32 17.4391 32 18.5V38.5C32 39.5609 31.5786 40.5783 30.8284 41.3284C30.0783 42.0786 29.0609 42.5 28 42.5H4C2.93913 42.5 1.92172 42.0786 1.17157 41.3284C0.421427 40.5783 0 39.5609 0 38.5V18.5C0 16.28 1.78 14.5 4 14.5H6V10.5C6 7.84784 7.05357 5.3043 8.92893 3.42893C10.8043 1.55357 13.3478 0.5 16 0.5C17.3132 0.5 18.6136 0.758658 19.8268 1.2612C21.0401 1.76375 22.1425 2.50035 23.0711 3.42893C23.9997 4.35752 24.7362 5.45991 25.2388 6.67317C25.7413 7.88642 26 9.18678 26 10.5V14.5H28ZM16 4.5C14.4087 4.5 12.8826 5.13214 11.7574 6.25736C10.6321 7.38258 10 8.9087 10 10.5V14.5H22V10.5C22 8.9087 21.3679 7.38258 20.2426 6.25736C19.1174 5.13214 17.5913 4.5 16 4.5Z" fill="#111111"/>
</svg>
