<svg width="53" height="43" viewBox="0 0 53 43" fill="none" xmlns="http://www.w3.org/2000/svg">
<g id="Group 2608609">
<g id="Group 2608610">
<path id="Vector" d="M41.876 19.9881C42.1188 20.2309 42.1188 20.6245 41.876 20.8673L23.2552 39.4881C23.0124 39.7309 22.6188 39.7309 22.376 39.4881L21.3902 38.5023C21.1474 38.2595 21.1474 37.8659 21.3902 37.6231L36.198 22.8153C36.5897 22.4236 36.3123 21.754 35.7584 21.754H0.621678C0.278335 21.754 0 21.4756 0 21.1323V19.7232C0 19.3798 0.278335 19.1015 0.621679 19.1015H35.7584C36.3123 19.1015 36.5897 18.4318 36.198 18.0402L21.3902 3.23236C21.1474 2.98958 21.1474 2.59596 21.3902 2.35318L22.376 1.36733C22.6188 1.12455 23.0124 1.12455 23.2552 1.36733L41.876 19.9881Z" fill="black"/>
<path id="Vector 54" d="M30.1677 1.36733L29.1824 2.35266C28.9394 2.59564 28.9397 2.98967 29.1829 3.23236L45.9776 19.9876C46.221 20.2305 46.221 20.6249 45.9776 20.8678L29.1829 37.6231C28.9397 37.8658 28.9394 38.2598 29.1824 38.5028L30.1677 39.4881C30.4105 39.7309 30.8042 39.7309 31.0469 39.4881L49.6677 20.8673C49.9105 20.6245 49.9105 20.2309 49.6677 19.9881L31.0469 1.36733C30.8042 1.12455 30.4105 1.12455 30.1677 1.36733Z" fill="black"/>
</g>
<g id="Group 2608608">
<path id="Vector_2" d="M50.3654 30.7822H36.6346C35.7318 30.7822 35 31.4141 35 32.1935V40.6615C35 41.4409 35.7318 42.0728 36.6346 42.0728H50.3654C51.2682 42.0728 52 41.4409 52 40.6615V32.1935C52 31.4141 51.2682 30.7822 50.3654 30.7822Z" fill="white" stroke="#0634BF" stroke-width="1.5" stroke-linecap="round" stroke-linejoin="round"/>
<g id="Vector_3">
<path d="M37.5972 33.04L43.3819 36.9404L49.1667 33.04" fill="white"/>
<path d="M37.5972 33.04L43.3819 36.9404L49.1667 33.04" stroke="#0634BF" stroke-width="1.5" stroke-linecap="round" stroke-linejoin="round"/>
</g>
</g>
</g>
</svg>
