<svg width="40" height="57" viewBox="0 0 40 57" fill="none" xmlns="http://www.w3.org/2000/svg">
<g clip-path="url(#clip0_410_2572)">
<path d="M35.5328 48.4181C35.5308 47.7831 35.4628 47.15 35.3297 46.5292H37.0297C36.9422 46.2702 36.8364 46.0177 36.7133 45.7736H35.1314C34.834 44.7801 34.3728 43.8432 33.7667 43.0017C33.3794 42.8388 32.9757 42.7185 32.5625 42.6428C33.3928 43.5349 34.0196 44.5967 34.3994 45.7547H31.8542V42.5625H31.1458V45.7594H28.6006C28.9812 44.5993 29.6096 43.5358 30.4422 42.6428C30.0308 42.7172 29.6287 42.836 29.2428 42.9969C28.6343 43.835 28.1699 44.7686 27.8686 45.7594H26.2772C26.1519 46.008 26.0446 46.2652 25.9561 46.5292H27.6703C27.5372 47.15 27.4692 47.7831 27.4672 48.4181C27.4685 49.1126 27.5477 49.8048 27.7033 50.4817H26.0317C26.1294 50.7464 26.2461 51.0036 26.3811 51.2514H27.9064C28.1955 52.1561 28.6241 53.0101 29.1767 53.7825C29.5724 53.9522 29.9858 54.0773 30.4092 54.1556C29.6385 53.3149 29.0457 52.327 28.6667 51.2514H31.1506V54.2453H31.8589V51.2514H34.3333C33.953 52.3275 33.3586 53.3154 32.5861 54.1556C33.0115 54.0746 33.4265 53.9463 33.8233 53.7731C34.3751 53.0035 34.8036 52.1528 35.0936 51.2514H36.6047C36.7391 51.0082 36.8558 50.7557 36.9542 50.4958H35.2778C35.4408 49.8151 35.5263 49.118 35.5328 48.4181ZM31.1458 50.4817H28.4353C28.1028 49.182 28.0882 47.8215 28.3928 46.515H31.1458V50.4817ZM34.5647 50.4817H31.8542V46.5292H34.6072C34.7429 47.1495 34.8094 47.783 34.8056 48.4181C34.8094 49.1132 34.7285 49.8061 34.5647 50.4817Z" fill="#0634BF"/>
<path d="M31.5 40.8623C30.0057 40.8623 28.5449 41.3054 27.3024 42.1356C26.0599 42.9659 25.0914 44.1459 24.5196 45.5265C23.9477 46.9071 23.7981 48.4262 24.0896 49.8919C24.3812 51.3575 25.1008 52.7038 26.1574 53.7604C27.2141 54.8171 28.5604 55.5367 30.026 55.8282C31.4916 56.1198 33.0108 55.9701 34.3914 55.3983C35.772 54.8264 36.952 53.858 37.7822 52.6155C38.6124 51.373 39.0556 49.9122 39.0556 48.4179C39.0556 46.414 38.2595 44.4922 36.8426 43.0753C35.4256 41.6583 33.5039 40.8623 31.5 40.8623ZM31.5 55.029C30.1924 55.029 28.9143 54.6412 27.8271 53.9148C26.7399 53.1884 25.8925 52.1558 25.3921 50.9478C24.8918 49.7398 24.7608 48.4105 25.0159 47.1281C25.271 45.8457 25.9007 44.6677 26.8252 43.7431C27.7498 42.8185 28.9278 42.1889 30.2102 41.9338C31.4927 41.6787 32.8219 41.8096 34.03 42.31C35.238 42.8104 36.2705 43.6577 36.9969 44.7449C37.7234 45.8321 38.1111 47.1103 38.1111 48.4179C38.1111 50.1712 37.4146 51.8528 36.1748 53.0926C34.9349 54.3324 33.2534 55.029 31.5 55.029Z" fill="#0634BF"/>
</g>
<path d="M32.375 9.26266V4.70703H4.625V9.26266L18.5 27.2678L32.375 9.26497V9.26266ZM20.8125 31.3008V49.8008L16.1875 54.4258V31.3008L1.93787 13.0274C1.33876 12.5997 0.850388 12.0352 0.513337 11.3808C0.176286 10.7265 0.000297099 10.0011 0 9.26497V4.70703C0 3.4804 0.487275 2.30402 1.35463 1.43666C2.22199 0.569306 3.39837 0.0820313 4.625 0.0820312H32.375C33.6016 0.0820313 34.778 0.569306 35.6454 1.43666C36.5127 2.30402 37 3.4804 37 4.70703V9.26266C37.0001 9.99914 36.8243 10.725 36.4872 11.3798C36.1501 12.0346 35.6616 12.5995 35.0621 13.0274L20.8125 31.3008Z" fill="#111111"/>
<defs>
<clipPath id="clip0_410_2572">
<rect width="17" height="17" fill="white" transform="translate(23 39.918)"/>
</clipPath>
</defs>
</svg>
