<svg width="43" height="34" viewBox="0 0 43 34" fill="none" xmlns="http://www.w3.org/2000/svg">
<g id="Group 2608609">
<path id="Vector" fill-rule="evenodd" clip-rule="evenodd" d="M0 1.83131C0 1.34562 0.170188 0.879818 0.473126 0.536379C0.776064 0.192941 1.18694 0 1.61535 0H40.3839C40.8123 0 41.2232 0.192941 41.5261 0.536379C41.829 0.879818 41.9992 1.34562 41.9992 1.83131C41.9992 2.31701 41.829 2.78281 41.5261 3.12625C41.2232 3.46969 40.8123 3.66263 40.3839 3.66263H1.61535C1.18694 3.66263 0.776064 3.46969 0.473126 3.12625C0.170188 2.78281 0 2.31701 0 1.83131ZM0 11.5983C0 11.1126 0.170188 10.6468 0.473126 10.3034C0.776064 9.95996 1.18694 9.76701 1.61535 9.76701H40.3839C40.8123 9.76701 41.2232 9.95996 41.5261 10.3034C41.829 10.6468 41.9992 11.1126 41.9992 11.5983C41.9992 12.084 41.829 12.5498 41.5261 12.8933C41.2232 13.2367 40.8123 13.4296 40.3839 13.4296H1.61535C1.18694 13.4296 0.776064 13.2367 0.473126 12.8933C0.170188 12.5498 0 12.084 0 11.5983ZM0 21.3653C0 20.8796 0.170188 20.4138 0.473126 20.0704C0.776064 19.727 1.18694 19.534 1.61535 19.534H18.8458C19.2742 19.534 19.6851 19.727 19.988 20.0704C20.291 20.4138 20.4612 20.8796 20.4612 21.3653C20.4612 21.851 20.291 22.3168 19.988 22.6603C19.6851 23.0037 19.2742 23.1967 18.8458 23.1967H1.61535C1.18694 23.1967 0.776064 23.0037 0.473126 22.6603C0.170188 22.3168 0 21.851 0 21.3653ZM31.7945 22.4153C32.0872 22.1309 32.46 21.9746 32.8455 21.9746C33.2311 21.9746 33.6039 22.1309 33.8966 22.4153L41.4349 29.7406C41.5961 29.897 41.7286 30.088 41.8247 30.3025C41.9209 30.517 41.9788 30.7509 41.9952 30.9908C42.0116 31.2307 41.9861 31.4719 41.9203 31.7006C41.8545 31.9293 41.7496 32.1412 41.6115 32.3239C41.4735 32.5067 41.3051 32.6569 41.1159 32.7658C40.9266 32.8748 40.7204 32.9405 40.5088 32.9591C40.2972 32.9777 40.0844 32.9488 39.8826 32.8742C39.6809 32.7996 39.494 32.6806 39.3328 32.5242L32.8455 26.2171L26.3583 32.5193C26.1986 32.6851 26.0111 32.8128 25.807 32.8948C25.6029 32.9768 25.3863 33.0115 25.1701 32.9967C24.954 32.9819 24.7426 32.918 24.5487 32.8088C24.3547 32.6996 24.1822 32.5472 24.0412 32.3609C23.9002 32.1745 23.7937 31.9579 23.728 31.724C23.6624 31.4901 23.6389 31.2435 23.6589 30.9991C23.679 30.7546 23.7422 30.5172 23.8448 30.301C23.9474 30.0848 24.0873 29.8942 24.2562 29.7406L31.7945 22.4153ZM0 31.1324C0 30.6467 0.170188 30.1809 0.473126 29.8374C0.776064 29.494 1.18694 29.301 1.61535 29.301H18.8458C19.2742 29.301 19.6851 29.494 19.988 29.8374C20.291 30.1809 20.4612 30.6467 20.4612 31.1324C20.4612 31.618 20.291 32.0839 19.988 32.4273C19.6851 32.7707 19.2742 32.9637 18.8458 32.9637H1.61535C1.18694 32.9637 0.776064 32.7707 0.473126 32.4273C0.170188 32.0839 0 31.618 0 31.1324Z" fill="#111111"/>
<g id="Group 2608608">
<path id="Vector_2" d="M39.8607 20.0928H24.2744C23.2497 20.0928 22.4189 20.8118 22.4189 21.6988V31.3347C22.4189 32.2216 23.2497 32.9407 24.2744 32.9407H39.8607C40.8855 32.9407 41.7162 32.2216 41.7162 31.3347V21.6988C41.7162 20.8118 40.8855 20.0928 39.8607 20.0928Z" fill="white" stroke="#0634BF" stroke-width="1.5" stroke-linecap="round" stroke-linejoin="round"/>
<g id="Vector_3">
<path d="M25.3671 22.6621L31.9336 27.1005L38.5 22.6621" fill="white"/>
<path d="M25.3671 22.6621L31.9336 27.1005L38.5 22.6621" stroke="#0634BF" stroke-width="1.5" stroke-linecap="round" stroke-linejoin="round"/>
</g>
</g>
</g>
</svg>
