<svg width="37" height="51" viewBox="0 0 37 51" fill="none" xmlns="http://www.w3.org/2000/svg">
<g id="Group 2608613">
<path id="Vector" fill-rule="evenodd" clip-rule="evenodd" d="M28.8874 27.5959C30.376 25.521 31.2768 23.0605 31.4894 20.4887C31.702 17.9169 31.2181 15.3347 30.0915 13.0298C28.9649 10.725 27.24 8.78791 25.1088 7.43449C22.9777 6.08108 20.524 5.36445 18.0212 5.36445C15.5184 5.36445 13.0648 6.08108 10.9336 7.43449C8.80247 8.78791 7.07753 10.725 5.95096 13.0298C4.82439 15.3347 4.34045 17.9169 4.55304 20.4887C4.76563 23.0605 5.66641 25.521 7.15503 27.5959L18.0227 42.5367L28.8874 27.5959ZM32.501 30.3747C34.4892 27.6088 35.6933 24.3278 35.9792 20.8974C36.2651 17.4671 35.6215 14.0222 34.1202 10.947C32.6189 7.8718 30.3188 5.28709 27.4765 3.48108C24.6341 1.67507 21.3612 0.71875 18.0227 0.71875C14.6842 0.71875 11.4113 1.67507 8.56901 3.48108C5.72667 5.28709 3.42659 7.8718 1.92525 10.947C0.423911 14.0222 -0.219687 17.4671 0.0662202 20.8974C0.352127 24.3278 1.5563 27.6088 3.54448 30.3747L14.6435 45.6345H8.26042C7.66293 45.6345 7.08991 45.8793 6.66742 46.315C6.24493 46.7507 6.00758 47.3417 6.00758 47.9579C6.00758 48.5741 6.24493 49.165 6.66742 49.6008C7.08991 50.0365 7.66293 50.2812 8.26042 50.2812H27.785C28.3825 50.2812 28.9555 50.0365 29.378 49.6008C29.8005 49.165 30.0379 48.5741 30.0379 47.9579C30.0379 47.3417 29.8005 46.7507 29.378 46.315C28.9555 45.8793 28.3825 45.6345 27.785 45.6345H21.402L32.501 30.3747Z" fill="#111111"/>
<g id="Group 2608611">
<path id="Vector_2" d="M23.5278 13.1094H12.5688C11.8483 13.1094 11.2642 13.6137 11.2642 14.2358V20.9943C11.2642 21.6164 11.8483 22.1207 12.5688 22.1207H23.5278C24.2483 22.1207 24.8324 21.6164 24.8324 20.9943V14.2358C24.8324 13.6137 24.2483 13.1094 23.5278 13.1094Z" fill="white" stroke="#0634BF" stroke-width="1.1972" stroke-linecap="round" stroke-linejoin="round"/>
<g id="Vector_3">
<path d="M13.3371 14.9121L17.9541 18.0251L22.571 14.9121" fill="white"/>
<path d="M13.3371 14.9121L17.9541 18.0251L22.571 14.9121" stroke="#0634BF" stroke-width="1.1972" stroke-linecap="round" stroke-linejoin="round"/>
</g>
</g>
</g>
</svg>
