<svg width="133" height="27" viewBox="0 0 133 27" fill="none" xmlns="http://www.w3.org/2000/svg">
<path d="M20.6667 3.90625H6.43461L5.09117 9.86688H17.2574C24.1154 10.4893 23.8843 17.7096 16.3807 20.4818C15.673 20.7433 14.9131 20.836 14.1587 20.836H0.750466L0 26.4137H16.9939C17.9863 26.4137 18.9807 26.2453 19.8818 25.8294C30.0774 21.1235 32.0587 10.6798 24.5085 5.03379C23.4122 4.21403 22.0355 3.90625 20.6667 3.90625Z" fill="#0634BF"/>
<path d="M32.5089 26.4134H27.556L33.6527 2.11425C33.9623 0.880246 35.0902 0.028949 36.3618 0.0695322L46.7138 0.399914C54.6791 4.58171 54.9082 11.7134 50.0597 17.5486C48.613 19.2897 46.3464 20.0338 44.0828 20.0338H37.4586L38.6502 15.0974C38.8896 14.1055 39.7772 13.4066 40.7975 13.4066H43.9905C47.0946 12.4926 47.5898 8.05541 43.9905 6.62715H39.382L34.6086 24.7941C34.3579 25.7482 33.4954 26.4134 32.5089 26.4134Z" fill="#0634BF"/>
<path d="M70.2339 6.62715H55.9476C55.6092 6.62715 55.2947 6.81316 55.1508 7.11945C54.471 8.56621 54.3939 9.66509 54.907 11.2101C55.1633 11.982 55.9219 12.4545 56.7353 12.4545H68.0642C68.4111 12.4545 68.6656 12.7805 68.5815 13.117L67.0052 19.4223C66.8314 20.1174 66.2068 20.6051 65.4902 20.6051H59.3015C58.965 20.6051 58.6921 20.3323 58.6921 19.9957V19.5006C58.6921 19.164 58.965 18.8912 59.3015 18.8912H63.9016C64.8874 18.8912 65.7539 18.238 66.0253 17.2902L66.6203 15.2121C66.7318 14.8228 66.4394 14.435 66.0344 14.435H57.0153C55.973 14.435 54.9464 14.7997 54.2369 15.5631C50.7865 19.2756 51.0211 22.9302 54.7914 25.9544C55.176 26.2629 55.6628 26.4134 56.1558 26.4134H68.8882C70.5151 26.4134 71.942 25.3275 72.3756 23.7594L75.2514 13.3587C75.2951 13.2007 75.3227 13.0374 75.3296 12.8735C75.4633 9.70752 74.4889 8.31325 71.2539 6.8425C70.9345 6.69727 70.5848 6.62715 70.2339 6.62715Z" fill="#0634BF"/>
<path d="M73.5777 25.1654L78.5736 6.62715H88.0001C90.2057 6.77255 91.9017 7.31231 93.7186 8.58749C97.1022 10.9623 97.9061 15.5316 96.8685 19.5331L95.3728 25.3008C95.203 25.9559 94.6118 26.4134 93.935 26.4134H89.8534C88.9217 26.4134 88.2464 25.5254 88.4954 24.6275L90.5419 17.2489C90.6494 16.861 90.7007 16.4563 90.6493 16.0571C90.4593 14.5833 89.8805 13.8782 88.3708 13.2636C88.1276 13.1645 87.8658 13.121 87.6032 13.121H83.6963L80.6489 24.8729C80.4137 25.78 79.5951 26.4134 78.658 26.4134H74.5339C73.8821 26.4134 73.4081 25.7947 73.5777 25.1654Z" fill="#0634BF"/>
<path d="M100.342 25.8655C95.6518 22.8679 98.759 11.6838 103.041 7.81607C104.18 6.78647 105.786 6.62715 107.322 6.62715H116.349C118.03 6.62715 119.698 7.33731 120.522 8.80235C122.634 12.5587 121.483 15.4724 119.01 18.372C118.649 18.7944 118.116 19.0245 117.56 19.0245H106.434L107.284 16.22C107.605 15.16 108.582 14.435 109.69 14.435H114.242L114.556 13.2703C114.666 12.8589 114.357 12.4545 113.93 12.4545H108.196C107.324 12.4545 106.558 13.0361 106.325 13.8766L104.991 18.6735C104.721 19.6444 105.451 20.6051 106.459 20.6051H119.517L118.302 24.9645C118.064 25.821 117.283 26.4134 116.394 26.4134H102.97C102.059 26.4134 101.11 26.3562 100.342 25.8655Z" fill="#0634BF"/>
<path d="M132.215 0.266609H127.24C126.684 0.266609 126.199 0.64197 126.06 1.1795L119.517 26.4134H120.149C123.767 26.4134 126.925 23.9629 127.823 20.4587L132.805 1.02734C132.904 0.641846 132.613 0.266609 132.215 0.266609Z" fill="#0634BF"/>
</svg>
