<svg width="34" height="34" viewBox="0 0 34 34" fill="none" xmlns="http://www.w3.org/2000/svg">
<path fill-rule="evenodd" clip-rule="evenodd" d="M17 0C7.6262 0 0 7.6262 0 17C0 26.3738 7.6262 34 17 34C26.3738 34 34 26.3738 34 17C34 7.6262 26.3738 0 17 0ZM17 33.2214C8.0563 33.2214 0.7803 25.9437 0.7803 17C0.7803 8.0563 8.0563 0.7786 17 0.7786C25.9437 0.7786 33.2214 8.0546 33.2214 17C33.2214 25.942 25.9454 33.2214 17 33.2214ZM2.4174 17C2.41705 19.7386 3.18781 22.422 4.64144 24.743C6.09507 27.064 8.17283 28.9288 10.6369 30.124L3.6788 11.067C2.84553 12.9339 2.41569 14.9556 2.4174 17ZM26.8464 16.2656C26.8464 14.4636 26.197 13.2158 25.6428 12.2434C24.9033 11.0415 24.2097 10.0249 24.2097 8.823C24.2097 7.4834 25.2263 6.2356 26.6577 6.2356C26.724 6.2356 26.7852 6.2424 26.8481 6.2475C24.1629 3.77886 20.6475 2.41043 17 2.414C14.5829 2.41279 12.2035 3.01305 10.0762 4.16067C7.94898 5.30829 6.14071 6.96721 4.8144 8.9879C5.1578 8.9981 5.4808 9.0049 5.7545 9.0049C7.2794 9.0049 9.6407 8.8196 9.6407 8.8196C10.4261 8.7737 10.5196 9.928 9.7342 10.0215C9.7342 10.0215 8.9437 10.115 8.0648 10.1609L13.3756 25.9573L16.5665 16.3863L14.2953 10.1609C13.5099 10.115 12.7653 10.0215 12.7653 10.0215C11.9799 9.9756 12.0717 8.7737 12.8588 8.8196C12.8588 8.8196 15.266 9.0066 16.6991 9.0066C18.224 9.0066 20.5853 8.8196 20.5853 8.8196C21.3724 8.7737 21.4642 9.928 20.6788 10.0215C20.6788 10.0215 19.8883 10.115 19.0094 10.1609L24.2794 25.8366L25.7363 20.9763C26.3653 18.9584 26.8447 17.51 26.8447 16.2622M17.2567 18.2733L12.8809 30.9893C15.8186 31.8558 18.9546 31.7743 21.8433 30.7564C21.8025 30.6921 21.7672 30.6244 21.7379 30.5541L17.2567 18.2733ZM29.7976 10.0011C29.8605 10.4669 29.8962 10.965 29.8962 11.5005C29.8962 12.9795 29.6191 14.6438 28.7861 16.7246L24.3321 29.6038C26.5381 28.3214 28.3688 26.4824 29.6412 24.2706C30.9136 22.0588 31.583 19.5517 31.5826 17C31.5866 14.5545 30.9726 12.1459 29.7976 10.0011Z" fill="#0634BF"/>
</svg>
