<svg width="49" height="49" viewBox="0 0 49 49" fill="none" xmlns="http://www.w3.org/2000/svg">
<path d="M24.5 0C18.0022 0 11.7705 2.58124 7.17588 7.17588C2.58124 11.7705 0 18.0022 0 24.5C0 30.9978 2.58124 37.2295 7.17588 41.8241C11.7705 46.4188 18.0022 49 24.5 49C30.9978 49 37.2295 46.4188 41.8241 41.8241C46.4188 37.2295 49 30.9978 49 24.5C49 18.0022 46.4188 11.7705 41.8241 7.17588C37.2295 2.58124 30.9978 0 24.5 0ZM3.02167 26.3511H9.85444C9.96333 28.8283 10.3091 31.2892 10.8889 33.7011H5.00889C3.91239 31.3896 3.23933 28.9002 3.02167 26.3511ZM26.3511 11.6511V3.23944C28.9745 4.23639 31.1301 6.17842 32.3944 8.68389C32.9525 9.6285 33.4452 10.6112 33.8644 11.6239L26.3511 11.6511ZM35.1167 15.3261C35.7482 17.7298 36.1239 20.1934 36.2328 22.6761H26.3511V15.3261H35.1167ZM22.6489 3.23944V11.6511H15.1356C15.5555 10.6376 16.0467 9.65516 16.6056 8.71111C17.8645 6.19538 20.0208 4.24302 22.6489 3.23944ZM22.6489 15.3261V22.6761H12.7944C12.9033 20.1934 13.279 17.7298 13.9106 15.3261H22.6489ZM9.85444 22.6489H3.02167C3.23933 20.0998 3.91239 17.6104 5.00889 15.2989H10.8889C10.3079 17.7098 9.96152 20.1713 9.85444 22.6489ZM12.7944 26.3511H22.6489V33.7011H13.9106C13.2791 31.2976 12.905 28.8337 12.7944 26.3511ZM22.6761 37.24V45.6517C20.0528 44.6547 17.8971 42.7127 16.6328 40.2072C16.0739 39.2632 15.5827 38.2807 15.1628 37.2672L22.6761 37.24ZM26.3511 45.6517V37.3761H33.8644C33.4445 38.3896 32.9533 39.3721 32.3944 40.3161C31.1301 42.8216 28.9745 44.7636 26.3511 45.7606V45.6517ZM26.3511 33.565V26.215H36.2056C36.095 28.6976 35.7209 31.1615 35.0894 33.565H26.3511ZM39.1728 26.215H46.0056C45.7879 28.7641 45.1148 31.2535 44.0183 33.565H38.1111C38.6828 31.1967 39.0285 28.7821 39.1456 26.3511L39.1728 26.215ZM39.1728 22.54C39.0481 20.1072 38.6926 17.6917 38.1111 15.3261H43.9911C45.0882 17.64 45.7606 20.1281 45.9783 22.6761L39.1728 22.54ZM41.895 11.6511H37.0222C36.1406 9.17471 34.8626 6.85789 33.2383 4.79111C36.6258 6.31169 39.5683 8.67314 41.7861 11.6511H41.895ZM15.7617 4.79111C14.1374 6.85789 12.8594 9.17471 11.9778 11.6511H7.21389C9.43174 8.67314 12.3742 6.31169 15.7617 4.79111ZM7.18667 37.4578H11.9778C12.8594 39.9342 14.1374 42.251 15.7617 44.3178C12.3648 42.7743 9.42147 40.384 7.21389 37.3761L7.18667 37.4578ZM33.2111 44.3178C34.8354 42.251 36.1133 39.9342 36.995 37.4578H41.7861C39.5547 40.3959 36.6134 42.7189 33.2383 44.2089L33.2111 44.3178Z" fill="#000310"/>
</svg>
