<svg width="38" height="38" viewBox="0 0 38 38" fill="none" xmlns="http://www.w3.org/2000/svg">
<path d="M19 0C13.9609 0 9.12816 2.00178 5.56497 5.56497C2.00178 9.12816 0 13.9609 0 19C0 24.0391 2.00178 28.8718 5.56497 32.435C9.12816 35.9982 13.9609 38 19 38C24.0391 38 28.8718 35.9982 32.435 32.435C35.9982 28.8718 38 24.0391 38 19C38 13.9609 35.9982 9.12816 32.435 5.56497C28.8718 2.00178 24.0391 0 19 0ZM2.34333 20.4356H7.64222C7.72667 22.3567 7.99478 24.2651 8.44444 26.1356H3.88444C3.0341 24.343 2.51213 22.4124 2.34333 20.4356ZM20.4356 9.03556V2.51222C22.47 3.28536 24.1417 4.79143 25.1222 6.73444C25.555 7.467 25.9371 8.22911 26.2622 9.01444L20.4356 9.03556ZM27.2333 11.8856C27.7231 13.7497 28.0144 15.6602 28.0989 17.5856H20.4356V11.8856H27.2333ZM17.5644 2.51222V9.03556H11.7378C12.0634 8.24958 12.4444 7.48767 12.8778 6.75556C13.8541 4.80458 15.5264 3.29051 17.5644 2.51222ZM17.5644 11.8856V17.5856H9.92222C10.0067 15.6602 10.298 13.7497 10.7878 11.8856H17.5644ZM7.64222 17.5644H2.34333C2.51213 15.5876 3.0341 13.657 3.88444 11.8644H8.44444C7.99392 13.7341 7.72526 15.643 7.64222 17.5644ZM9.92222 20.4356H17.5644V26.1356H10.7878C10.2981 24.2716 10.0079 22.3609 9.92222 20.4356ZM17.5856 28.88V35.4033C15.5511 34.6302 13.8794 33.1241 12.8989 31.1811C12.4655 30.449 12.0846 29.6871 11.7589 28.9011L17.5856 28.88ZM20.4356 35.4033V28.9856H26.2622C25.9366 29.7715 25.5556 30.5334 25.1222 31.2656C24.1417 33.2086 22.47 34.7146 20.4356 35.4878V35.4033ZM20.4356 26.03V20.33H28.0778C27.9921 22.2553 27.7019 24.166 27.2122 26.03H20.4356ZM30.3789 20.33H35.6778C35.509 22.3069 34.987 24.2374 34.1367 26.03H29.5556C29.9989 24.1933 30.267 22.3208 30.3578 20.4356L30.3789 20.33ZM30.3789 17.48C30.2822 15.5933 30.0065 13.7201 29.5556 11.8856H34.1156C34.9663 13.68 35.4878 15.6096 35.6567 17.5856L30.3789 17.48ZM32.49 9.03556H28.7111C28.0274 7.11508 27.0363 5.31837 25.7767 3.71556C28.4037 4.89478 30.6856 6.72611 32.4056 9.03556H32.49ZM12.2233 3.71556C10.9637 5.31837 9.97263 7.11508 9.28889 9.03556H5.59444C7.31441 6.72611 9.59631 4.89478 12.2233 3.71556ZM5.57333 29.0489H9.28889C9.97263 30.9694 10.9637 32.7661 12.2233 34.3689C9.58904 33.1719 7.30644 31.3182 5.59444 28.9856L5.57333 29.0489ZM25.7556 34.3689C27.0152 32.7661 28.0063 30.9694 28.69 29.0489H32.4056C30.6751 31.3274 28.3941 33.1289 25.7767 34.2844L25.7556 34.3689Z" fill="#0634BF"/>
</svg>
