<svg width="53" height="59" viewBox="0 0 53 59" fill="none" xmlns="http://www.w3.org/2000/svg">
<path d="M8.43182 42.7412H13.25V49.9685H8.43182V42.7412Z" fill="#0634BF"/>
<path d="M48.177 34.3087H4.823C3.54386 34.3087 2.31711 34.8168 1.41262 35.7213C0.508136 36.6258 0 37.8525 0 39.1317V53.5766C0 54.2099 0.124751 54.8371 0.367129 55.4223C0.609508 56.0074 0.964767 56.5391 1.41262 56.9869C1.86048 57.4348 2.39216 57.7901 2.97732 58.0324C3.56247 58.2748 4.18964 58.3996 4.823 58.3996H48.177C49.4561 58.3996 50.6829 57.8914 51.5874 56.9869C52.4919 56.0825 53 54.8557 53 53.5766V39.1317C53 37.8525 52.4919 36.6258 51.5874 35.7213C50.6829 34.8168 49.4561 34.3087 48.177 34.3087ZM16.8636 49.9678C16.8725 50.4447 16.785 50.9186 16.6065 51.361C16.4281 51.8034 16.1622 52.2053 15.8249 52.5426C15.4876 52.88 15.0857 53.1458 14.6433 53.3243C14.2008 53.5028 13.727 53.5902 13.25 53.5814H4.81818V39.1268H13.25C13.727 39.118 14.2008 39.2055 14.6433 39.3839C15.0857 39.5624 15.4876 39.8283 15.8249 40.1656C16.1622 40.5029 16.4281 40.9048 16.6065 41.3472C16.785 41.7896 16.8725 42.2635 16.8636 42.7405V49.9678ZM32.5227 53.5814H29.6318L23.4886 45.1496V53.5814H20.4773V39.1268H23.4886L29.5114 47.5587V39.1268H32.5227V53.5814ZM48.1818 42.7887H39.75V44.5714H45.7727C46.4117 44.5714 47.0244 44.8252 47.4762 45.277C47.928 45.7288 48.1818 46.3415 48.1818 46.9805V51.1723C48.1818 51.8112 47.928 52.424 47.4762 52.8758C47.0244 53.3276 46.4117 53.5814 45.7727 53.5814H36.1364V49.9678H44.5923V48.185H38.5455C37.9065 48.185 37.2938 47.9312 36.842 47.4794C36.3902 47.0276 36.1364 46.4149 36.1364 45.7759V41.5359C36.1364 40.897 36.3902 40.2842 36.842 39.8324C37.2938 39.3807 37.9065 39.1268 38.5455 39.1268H48.1818V42.7887ZM7.85364 29.4905C7.44842 27.9161 7.23805 26.2979 7.22727 24.6723C7.23805 23.0467 7.44842 21.4285 7.85364 19.8541H15.9964C15.7865 21.4519 15.6738 23.0609 15.6591 24.6723C15.6738 26.2837 15.7865 27.8927 15.9964 29.4905H20.8627C20.6247 27.8951 20.496 26.2853 20.4773 24.6723C20.495 23.0593 20.6238 21.4494 20.8627 19.8541H32.1373C32.3762 21.4494 32.505 23.0593 32.5227 24.6723C32.504 26.2853 32.3752 27.8951 32.1373 29.4905H37.0036C37.2136 27.8927 37.3262 26.2837 37.3409 24.6723C37.3262 23.0609 37.2136 21.4519 37.0036 19.8541H45.1464C45.5517 21.4285 45.762 23.0466 45.7727 24.6723C45.762 26.2979 45.5517 27.9161 45.1464 29.4905H50.1067C50.8181 25.9913 50.7428 22.3777 49.8862 18.9112C49.0296 15.4447 47.4131 12.2119 45.1537 9.44689C42.8942 6.68184 40.0484 4.45364 36.822 2.92352C33.5957 1.39339 30.0696 0.599609 26.4988 0.599609C22.928 0.599609 19.4019 1.39339 16.1755 2.92352C12.9492 4.45364 10.1034 6.68184 7.84394 9.44689C5.58451 12.2119 3.968 15.4447 3.11138 18.9112C2.25476 22.3777 2.17945 25.9913 2.89091 29.4905H7.85364ZM43.1709 15.0359H36.0641C35.3101 12.0522 34.1936 9.17195 32.7395 6.45957C37.134 7.97248 40.8369 11.0169 43.1709 15.0359ZM26.5 5.49593C28.5237 8.41549 30.0764 11.6347 31.1014 15.0359H21.8986C22.9236 11.6347 24.4763 8.41549 26.5 5.49593ZM20.2605 6.45957C18.8063 9.17193 17.6899 12.0522 16.9359 15.0359H9.82909C12.1559 11.0108 15.8614 7.96421 20.2605 6.45957Z" fill="#111111"/>
</svg>
