<svg width="55" height="55" viewBox="0 0 55 55" fill="none" xmlns="http://www.w3.org/2000/svg">
<path d="M28.7143 2.12109C28.7143 2.12109 36 11.714 36 26.2854M23.8571 50.4497C23.8571 50.4497 16.5714 40.8568 16.5714 26.2854C16.5714 11.714 23.8571 2.12109 23.8571 2.12109M3.52999 34.7854H26.2857M3.52999 17.7854H49.0414M43.2857 39.6425V43.2854H46.9286" stroke="#111111" stroke-width="3.8" stroke-linecap="round" stroke-linejoin="round"/>
<path d="M50.5714 26.2857C50.5714 12.8727 39.6987 2 26.2857 2C12.8727 2 2 12.8727 2 26.2857C2 39.6987 12.8727 50.5714 26.2857 50.5714" stroke="#0634BF" stroke-width="3.8" stroke-linecap="round" stroke-linejoin="round"/>
<path d="M43.2857 52.9999C45.8621 52.9999 48.333 51.9764 50.1547 50.1546C51.9765 48.3328 53 45.862 53 43.2856C53 40.7092 51.9765 38.2383 50.1547 36.4165C48.333 34.5948 45.8621 33.5713 43.2857 33.5713C40.7093 33.5713 38.2385 34.5948 36.4167 36.4165C34.5949 38.2383 33.5714 40.7092 33.5714 43.2856C33.5714 45.862 34.5949 48.3328 36.4167 50.1546C38.2385 51.9764 40.7093 52.9999 43.2857 52.9999Z" stroke="#0634BF" stroke-width="3.8" stroke-linecap="round" stroke-linejoin="round"/>
</svg>
