<svg width="36" height="39" viewBox="0 0 36 39" fill="none" xmlns="http://www.w3.org/2000/svg">
<path d="M18 0C9.27474 0 0 2.27871 0 6.5V32.5C0 36.7213 9.27474 39 18 39C26.7253 39 36 36.7213 36 32.5V6.5C36 2.27871 26.7253 0 18 0ZM18 29.7143C8.02042 29.7143 1.89474 27.0103 1.89474 25.0714V22.5327C5.05137 24.8003 11.6716 26 18 26C24.3284 26 30.9486 24.8003 34.1053 22.5327V25.0714C34.1053 27.0103 27.9796 29.7143 18 29.7143ZM18 22.2857C8.02042 22.2857 1.89474 19.5817 1.89474 17.6429V15.1023C5.05137 17.3717 11.6716 18.5714 18 18.5714C24.3284 18.5714 30.9486 17.3717 34.1053 15.1023V17.6429C34.1053 19.5817 27.9796 22.2857 18 22.2857ZM34.1053 32.5C34.1053 34.4389 27.9796 37.1429 18 37.1429C8.02042 37.1429 1.89474 34.4389 1.89474 32.5V29.9613C5.05137 32.2289 11.6716 33.4286 18 33.4286C24.3284 33.4286 30.9486 32.2289 34.1053 29.9613V32.5ZM18 14.8571C8.02042 14.8571 1.89474 12.1531 1.89474 10.2143V6.5C1.89474 4.56114 8.02042 1.85714 18 1.85714C27.9796 1.85714 34.1053 4.56114 34.1053 6.5V10.2143C34.1053 12.1531 27.9796 14.8571 18 14.8571Z" fill="#0634BF"/>
</svg>
