<svg width="50" height="43" viewBox="0 0 50 43" fill="none" xmlns="http://www.w3.org/2000/svg">
<path d="M49 29.5966C49 35.9845 43.6274 41.163 37 41.163C34.8509 41.163 32.8337 40.6184 31.0889 39.6647C28.0172 37.9856 25.7895 35.0381 25.1723 31.5609C25.059 30.9225 25 30.2662 25 29.5966C25 26.6267 26.1614 23.9182 28.0702 21.8701C30.267 19.5128 33.4539 18.0303 37 18.0303C43.6274 18.0303 49 23.2088 49 29.5966Z" fill="#0634BF" stroke="black" stroke-width="2" stroke-linecap="round" stroke-linejoin="round"/>
<path d="M37 7.62109V16.8742V18.0308C33.4539 18.0308 30.267 19.5134 28.0702 21.8706C26.1614 23.9188 25 26.6273 25 29.5972C25 30.2667 25.059 30.923 25.1723 31.5615C25.7895 35.0387 28.0172 37.9861 31.0889 39.6652C27.8939 40.5963 23.6531 41.1635 19 41.1635C9.05884 41.1635 1 38.5743 1 35.3803V26.1273V16.8742V7.62109" stroke="black" stroke-width="2" stroke-linecap="round" stroke-linejoin="round"/>
<path d="M37 7.62107C37 10.815 28.9412 13.4042 19 13.4042C9.05884 13.4042 1 10.815 1 7.62107C1 4.42711 9.05884 1.83789 19 1.83789C28.9412 1.83789 37 4.42711 37 7.62107Z" fill="#0634BF" stroke="black" stroke-width="2" stroke-linecap="round" stroke-linejoin="round"/>
<path d="M1 26.127C1 29.3209 9.05884 31.9101 19 31.9101C21.1684 31.9101 23.2472 31.7869 25.1723 31.5612" stroke="black" stroke-width="2" stroke-linecap="round" stroke-linejoin="round"/>
<path d="M1 16.874C1 20.068 9.05884 22.6572 19 22.6572C22.3076 22.6572 25.4068 22.3706 28.0702 21.8705" stroke="black" stroke-width="2" stroke-linecap="round" stroke-linejoin="round"/>
<path d="M37 23.8145L33.4 28.441L40.6 30.7543L37 35.3808" stroke="white" stroke-width="2" stroke-linecap="round" stroke-linejoin="round"/>
</svg>
