<svg width="51" height="57" viewBox="0 0 51 57" fill="none" xmlns="http://www.w3.org/2000/svg">
<path d="M25.3251 44.7177V36.6094" stroke="black" stroke-width="2" stroke-linecap="round" stroke-linejoin="round"/>
<path d="M19.9195 50.123H1" stroke="black" stroke-width="2" stroke-linecap="round" stroke-linejoin="round"/>
<path d="M30.7306 50.123H49.6501" stroke="black" stroke-width="2" stroke-linecap="round" stroke-linejoin="round"/>
<path d="M30.7306 50.1224C30.7306 53.1077 28.3104 55.5279 25.325 55.5279C22.3397 55.5279 19.9195 53.1077 19.9195 50.1224C19.9195 47.137 22.3397 44.7168 25.325 44.7168C28.3104 44.7168 30.7306 47.137 30.7306 50.1224Z" fill="#0634BF" stroke="black" stroke-width="2" stroke-linecap="round" stroke-linejoin="round"/>
<path d="M45.5959 8.22949V29.8518C45.5959 33.5835 36.5204 36.6087 25.325 36.6087C14.1297 36.6087 5.05418 33.5835 5.05418 29.8518V8.22949" stroke="black" stroke-width="2" stroke-linecap="round" stroke-linejoin="round"/>
<path d="M45.5959 19.041C45.5959 22.7727 36.5204 25.798 25.325 25.798C14.1297 25.798 5.05418 22.7727 5.05418 19.041" stroke="black" stroke-width="2" stroke-linecap="round" stroke-linejoin="round"/>
<path d="M45.5959 8.22961C45.5959 11.9613 36.5204 14.9866 25.325 14.9866C14.1297 14.9866 5.05418 11.9613 5.05418 8.22961C5.05418 4.49785 14.1297 1.47266 25.325 1.47266C36.5204 1.47266 45.5959 4.49785 45.5959 8.22961Z" fill="#0634BF"/>
<path d="M45.5959 8.22961C45.5959 11.9613 36.5204 14.9866 25.325 14.9866C14.1297 14.9866 5.05418 11.9613 5.05418 8.22961C5.05418 4.49785 14.1297 1.47266 25.325 1.47266C36.5204 1.47266 45.5959 4.49785 45.5959 8.22961Z" fill="#0634BF"/>
<path d="M45.5959 8.22961C45.5959 11.9613 36.5204 14.9866 25.325 14.9866C14.1297 14.9866 5.05418 11.9613 5.05418 8.22961C5.05418 4.49785 14.1297 1.47266 25.325 1.47266C36.5204 1.47266 45.5959 4.49785 45.5959 8.22961Z" stroke="black" stroke-width="2" stroke-linecap="round" stroke-linejoin="round"/>
<path d="M45.5959 8.22961C45.5959 11.9613 36.5204 14.9866 25.325 14.9866C14.1297 14.9866 5.05418 11.9613 5.05418 8.22961C5.05418 4.49785 14.1297 1.47266 25.325 1.47266C36.5204 1.47266 45.5959 4.49785 45.5959 8.22961Z" stroke="black" stroke-width="2" stroke-linecap="round" stroke-linejoin="round"/>
</svg>
