<svg width="58" height="47" viewBox="0 0 58 47" fill="none" xmlns="http://www.w3.org/2000/svg">
<path d="M36.1 42.8711H1L0 38.1378C1 38.1378 1 38.1385 0.999999 38.1392L1.00023 38.131C1.00056 38.1182 1.00133 38.0953 1.00308 38.0629C1.00658 37.9979 1.01399 37.8951 1.02962 37.7599C1.06091 37.4891 1.12489 37.0904 1.25536 36.6064C1.51631 35.6386 2.04081 34.3382 3.09624 33.0334C5.17746 30.4604 9.49191 27.6712 18.55 27.6712C27.6081 27.6712 31.9225 30.4604 34.0038 33.0334C35.0592 34.3382 35.5837 35.6386 35.8446 36.6064C35.9751 37.0904 36.0391 37.4891 36.0704 37.7599C36.086 37.8951 36.0934 37.9979 36.0969 38.0629C36.0987 38.0953 36.0994 38.1182 36.0998 38.131L36.1 38.1392L36.1 38.1404L36.1 38.1418V42.8711ZM52 42.8711H43.4V38.1378V38.1198L43.3993 38.1018C43.3143 35.7408 42.7519 33.4259 41.7491 31.3196C41.1721 30.1075 40.4567 28.9803 39.6212 27.9638C45.5731 28.8714 48.6127 31.2505 50.1866 33.394C51.0999 34.6381 51.5539 35.8481 51.7796 36.7405C51.8924 37.1865 51.9476 37.5511 51.9746 37.7974C51.988 37.9204 51.9944 38.0134 51.9974 38.0719C51.9989 38.1011 51.9995 38.1215 51.9998 38.1327L52 38.1392L52 38.1403L52 38.1417V42.8711ZM34.444 1.87124H34.45C36.6182 1.87124 38.7151 2.80226 40.2741 4.48874C41.8356 6.17788 42.725 8.48451 42.725 10.9045C42.725 13.3246 41.8356 15.6312 40.2741 17.3203C38.7151 19.0068 36.6182 19.9378 34.45 19.9378L34.444 19.9379C33.1389 19.9457 31.852 19.6037 30.6965 18.9425C32.0776 16.5279 32.8107 13.7453 32.8107 10.9045C32.8107 8.06377 32.0776 5.2812 30.6965 2.86658C31.852 2.20543 33.1389 1.86337 34.444 1.87124ZM36.1 38.1421V38.1423C36.1 38.1429 36.1 38.1428 36.1 38.1421ZM25.4111 5.85585C26.3303 7.34407 26.825 9.10122 26.825 10.9045C26.825 13.3246 25.9356 15.6312 24.3741 17.3203C22.8151 19.0068 20.7182 19.9378 18.55 19.9378C16.9317 19.9378 15.3424 19.4191 13.9829 18.4365C12.6222 17.453 11.5505 16.0465 10.9149 14.3865C10.2791 12.7261 10.1118 10.8952 10.4367 9.12799C10.7616 7.36098 11.562 5.74776 12.7259 4.48874C13.889 3.23055 15.361 2.38376 16.9509 2.04166C18.5399 1.69973 20.188 1.87434 21.6905 2.54756C23.1942 3.22133 24.4922 4.36826 25.4111 5.85585Z" stroke="black" stroke-width="2"/>
<path d="M22.2902 46.1259H25.112C25.1729 46.1265 25.232 46.1052 25.2783 46.0658C25.3246 46.0263 25.3549 45.9716 25.3636 45.9117L25.9927 42.6623H28.1854C29.1033 42.6852 30.0191 42.5647 30.8994 42.3053C31.6126 42.071 32.2636 41.6805 32.8045 41.1627C33.2903 40.7289 33.6976 40.2156 34.0087 39.6451C34.3165 39.087 34.5348 38.4847 34.6558 37.8598C34.8467 37.2047 34.8795 36.5141 34.7515 35.8441C34.6234 35.174 34.3382 34.5434 33.9189 34.0034C33.433 33.513 32.845 33.1342 32.196 32.8937C31.5471 32.6531 30.853 32.5566 30.1625 32.6109H24.7705C24.7058 32.6137 24.644 32.6382 24.5951 32.6804C24.5462 32.7225 24.513 32.7798 24.5009 32.843L22.0206 45.8046C21.9931 45.8795 21.9931 45.9617 22.0206 46.0366C22.0549 46.0721 22.0974 46.0988 22.1443 46.1143C22.1913 46.1299 22.2413 46.1338 22.2902 46.1259ZM27.4126 35.1282H29.2099C29.5518 35.0826 29.8995 35.1048 30.2327 35.1937C30.5659 35.2826 30.878 35.4363 31.151 35.6459C31.4565 35.9673 31.5104 36.5743 31.3487 37.4313C31.2586 38.198 30.8952 38.9073 30.3242 39.4309C29.6124 39.8786 28.7737 40.0853 27.9338 40.02H26.4959L27.4126 35.1282ZM45.0263 33.4321C44.0533 32.7215 42.8485 32.3969 41.6473 32.5216H39.5085L40.1016 29.3794C40.1192 29.3432 40.1283 29.3035 40.1283 29.2633C40.1283 29.2232 40.1192 29.1835 40.1016 29.1473C40.0378 29.1241 39.9678 29.1241 39.9039 29.1473H37.0821C37.0212 29.1467 36.9621 29.168 36.9158 29.2075C36.8695 29.2469 36.8392 29.3016 36.8305 29.3615L34.3502 42.341C34.3329 42.3741 34.3238 42.4108 34.3238 42.4481C34.3238 42.4854 34.3329 42.5221 34.3502 42.5552C34.3714 42.5882 34.4007 42.6153 34.4352 42.634C34.4698 42.6527 34.5085 42.6625 34.5479 42.6623H37.3158C37.3795 42.6625 37.4409 42.6386 37.4876 42.5956C37.5344 42.5525 37.5629 42.4934 37.5674 42.4303L38.9513 35.1639H40.9464C41.7552 35.1639 42.0427 35.3424 42.1326 35.4496C42.2058 35.625 42.2434 35.8131 42.2434 36.003C42.2434 36.1929 42.2058 36.381 42.1326 36.5565L41.0362 42.341C41.0189 42.3741 41.0099 42.4108 41.0099 42.4481C41.0099 42.4854 41.0189 42.5221 41.0362 42.5552C41.0585 42.5871 41.088 42.6134 41.1224 42.632C41.1567 42.6506 41.1949 42.661 41.2339 42.6623H44.0378C44.1024 42.6595 44.1642 42.635 44.2132 42.5928C44.2621 42.5507 44.2953 42.4934 44.3074 42.4303L45.4576 36.3601C45.6432 35.876 45.701 35.3529 45.6255 34.8403C45.55 34.3278 45.3437 33.843 45.0263 33.4321ZM53.1502 32.5216H47.5246C47.4915 32.5192 47.4583 32.5232 47.4268 32.5336C47.3953 32.544 47.3662 32.5604 47.3412 32.582C47.3161 32.6035 47.2956 32.6298 47.2808 32.6593C47.266 32.6888 47.2572 32.7208 47.255 32.7537L44.6309 45.8046C44.6145 45.8411 44.6061 45.8806 44.6061 45.9206C44.6061 45.9606 44.6145 46.0001 44.6309 46.0366C44.655 46.0652 44.6853 46.0881 44.7195 46.1036C44.7537 46.119 44.791 46.1266 44.8286 46.1259H47.7582C47.8222 46.1311 47.8857 46.1118 47.9358 46.072C47.9859 46.0321 48.0188 45.9748 48.0278 45.9117L48.6928 42.6623H50.9754C51.9227 42.683 52.8678 42.5627 53.7792 42.3053C54.564 42.0884 55.2891 41.6978 55.9001 41.1627C56.4018 40.7301 56.8271 40.2172 57.1582 39.6451C57.4717 39.0878 57.696 38.4855 57.8232 37.8598C58.0191 37.2041 58.0528 36.5111 57.9214 35.8397C57.7899 35.1684 57.4973 34.5384 57.0683 34.0034C56.5601 33.4921 55.9473 33.0952 55.2714 32.8396C54.5954 32.5839 53.872 32.4755 53.1502 32.5216ZM54.2645 37.467C54.157 38.2401 53.7745 38.9494 53.1861 39.4666C52.4486 39.9163 51.5866 40.1226 50.7238 40.0557H49.2859L50.2565 35.1282H52.0538C52.7723 35.0407 53.4975 35.2256 54.0848 35.6459C54.3723 35.9673 54.3723 36.5743 54.2645 37.467Z" fill="#0634BF"/>
</svg>
