<svg width="58" height="49" viewBox="0 0 58 49" fill="none" xmlns="http://www.w3.org/2000/svg">
<path d="M56.2941 34.1761C56.2941 41.8105 50.105 47.9996 42.4706 47.9996C39.9949 47.9996 37.6712 47.3488 35.6613 46.2089C32.1227 44.2021 29.5565 40.6795 28.8456 36.5237C28.7151 35.7607 28.6471 34.9763 28.6471 34.1761C28.6471 30.6266 29.9849 27.3895 32.1838 24.9417C34.7145 22.1244 38.3856 20.3525 42.4706 20.3525C50.105 20.3525 56.2941 26.5416 56.2941 34.1761Z" fill="#0634BF" stroke="black" stroke-width="2" stroke-linecap="round" stroke-linejoin="round"/>
<path d="M42.4706 7.91211V18.9709V20.3533C38.3856 20.3533 34.7145 22.1252 32.1838 24.9424C29.9849 27.3903 28.6471 30.6273 28.6471 34.1768C28.6471 34.9771 28.7151 35.7614 28.8456 36.5245C29.5565 40.6802 32.1227 44.2029 35.6613 46.2096C31.9807 47.3224 27.0955 48.0003 21.7353 48.0003C10.2835 48.0003 1 44.9058 1 41.0886V30.0298V18.9709V7.91211" stroke="black" stroke-width="2" stroke-linecap="round" stroke-linejoin="round"/>
<path d="M42.4706 7.91176C42.4706 11.729 33.1871 14.8235 21.7353 14.8235C10.2835 14.8235 1 11.729 1 7.91176C1 4.09451 10.2835 1 21.7353 1C33.1871 1 42.4706 4.09451 42.4706 7.91176Z" fill="#0634BF" stroke="black" stroke-width="2" stroke-linecap="round" stroke-linejoin="round"/>
<path d="M1 30.0293C1 33.8465 10.2835 36.9411 21.7353 36.9411C24.2332 36.9411 26.6279 36.7938 28.8456 36.524" stroke="black" stroke-width="2" stroke-linecap="round" stroke-linejoin="round"/>
<path d="M1 18.9707C1 22.7879 10.2835 25.8825 21.7353 25.8825C25.5455 25.8825 29.1157 25.5399 32.1838 24.9422" stroke="black" stroke-width="2" stroke-linecap="round" stroke-linejoin="round"/>
<path d="M49.3824 34.1769L43.8529 28.6475M49.3824 34.1769L43.8529 39.7063M49.3824 34.1769H35.5588" stroke="white" stroke-width="2" stroke-linecap="round" stroke-linejoin="round"/>
</svg>
