<svg width="48" height="49" viewBox="0 0 48 49" fill="none" xmlns="http://www.w3.org/2000/svg">
<g id="arcticons:fdeai">
<path id="Vector" d="M17.736 14.2234C16.7315 14.2232 15.7496 13.9252 14.9145 13.367C14.0794 12.8088 13.4286 12.0155 13.0443 11.0874C12.6601 10.1593 12.5596 9.13812 12.7557 8.15296C12.9518 7.16779 13.4356 6.26289 14.146 5.55268C14.8563 4.84247 15.7613 4.35884 16.7465 4.16295C17.7317 3.96706 18.7529 4.0677 19.6809 4.45214C20.6089 4.83659 21.4021 5.48758 21.9601 6.32279C22.5181 7.15801 22.816 8.13994 22.816 9.14443V14.2244M13.214 37.5424C12.8635 38.2264 12.6728 38.9811 12.6562 39.7495C12.6396 40.5179 12.7976 41.28 13.1183 41.9785C13.4389 42.677 13.9139 43.2937 14.5074 43.782C15.1009 44.2703 15.7975 44.6176 16.5447 44.7977C17.2919 44.9778 18.0702 44.986 18.821 44.8217C19.5719 44.6573 20.2756 44.3248 20.8793 43.8491C21.4829 43.3734 21.9708 42.7669 22.3061 42.0753C22.6414 41.3837 22.8154 40.625 22.815 39.8564V34.7764" stroke="#111111" stroke-width="2" stroke-linecap="round" stroke-linejoin="round"/>
<path id="Vector_2" d="M8.079 18.6779C7.10308 17.961 6.41537 16.9191 6.13981 15.7399C5.86426 14.5607 6.01899 13.3219 6.57612 12.2467C7.13325 11.1715 8.05613 10.3307 9.1784 9.87589C10.3007 9.42104 11.5485 9.38204 12.697 9.76594M16.162 32.9319C16.1619 33.7999 15.9393 34.6534 15.5156 35.411C15.0918 36.1685 14.4809 36.8048 13.7413 37.2591C13.0017 37.7134 12.158 37.9706 11.2907 38.0061C10.4234 38.0416 9.56147 37.8542 8.7872 37.4618C8.01292 37.0695 7.35212 36.4852 6.86787 35.7649C6.38361 35.0445 6.09206 34.212 6.02103 33.3469C5.95001 32.4818 6.10188 31.613 6.46215 30.8232C6.82243 30.0335 7.37909 29.3493 8.079 28.8359" stroke="#111111" stroke-width="2" stroke-linecap="round" stroke-linejoin="round"/>
<path id="Vector_3" d="M8.079 28.8364C7.07447 28.8364 6.0925 28.5386 5.25726 27.9805C4.42202 27.4224 3.77104 26.6291 3.38662 25.7011C3.0022 24.773 2.90162 23.7518 3.09759 22.7666C3.29357 21.7813 3.7773 20.8763 4.48761 20.166C5.19792 19.4557 6.10291 18.972 7.08814 18.776C8.07337 18.58 9.09459 18.6806 10.0227 19.065C10.9507 19.4495 11.7439 20.1005 12.302 20.9357C12.8601 21.7709 13.158 22.7529 13.158 23.7574M30.264 14.2234C31.2685 14.2232 32.2504 13.9252 33.0855 13.367C33.9206 12.8088 34.5714 12.0155 34.9557 11.0874C35.3399 10.1593 35.4404 9.13812 35.2443 8.15296C35.0482 7.16779 34.5644 6.26289 33.854 5.55268C33.1437 4.84247 32.2387 4.35884 31.2535 4.16295C30.2683 3.96706 29.2471 4.0677 28.3191 4.45214C27.3911 4.83659 26.5979 5.48758 26.0399 6.32279C25.4819 7.15801 25.184 8.13994 25.184 9.14443V14.2244M34.786 37.5424C35.1365 38.2264 35.3272 38.9811 35.3438 39.7495C35.3604 40.5179 35.2024 41.28 34.8818 41.9785C34.5611 42.677 34.0861 43.2937 33.4926 43.782C32.8991 44.2703 32.2025 44.6176 31.4553 44.7977C30.7081 44.9778 29.9298 44.986 29.179 44.8217C28.4281 44.6573 27.7244 44.3248 27.1207 43.8491C26.5171 43.3734 26.0292 42.7669 25.6939 42.0753C25.3586 41.3837 25.1846 40.625 25.185 39.8564V34.7764" stroke="#111111" stroke-width="2" stroke-linecap="round" stroke-linejoin="round"/>
<path id="Vector_4" d="M39.921 18.6779C40.8969 17.961 41.5846 16.9191 41.8602 15.7399C42.1358 14.5607 41.981 13.3219 41.4239 12.2467C40.8668 11.1715 39.9439 10.3307 38.8216 9.87589C37.6993 9.42104 36.4515 9.38204 35.303 9.76594M31.838 32.9319C31.8381 33.7999 32.0607 34.6534 32.4845 35.411C32.9082 36.1685 33.5191 36.8048 34.2587 37.2591C34.9983 37.7134 35.8421 37.9706 36.7093 38.0061C37.5766 38.0416 38.4385 37.8542 39.2128 37.4618C39.9871 37.0695 40.6479 36.4852 41.1321 35.7649C41.6164 35.0445 41.908 34.212 41.979 33.3469C42.05 32.4818 41.8981 31.613 41.5379 30.8232C41.1776 30.0335 40.6209 29.3493 39.921 28.8359" stroke="#111111" stroke-width="2" stroke-linecap="round" stroke-linejoin="round"/>
<path id="Vector_5" d="M39.921 28.836C40.9255 28.836 41.9075 28.5381 42.7427 27.98C43.578 27.4219 44.229 26.6287 44.6134 25.7006C44.9978 24.7726 45.0984 23.7513 44.9024 22.7661C44.7064 21.7809 44.2227 20.8759 43.5124 20.1656C42.8021 19.4553 41.8971 18.9715 40.9119 18.7756C39.9266 18.5796 38.9054 18.6802 37.9774 19.0646C37.0493 19.449 36.2561 20.1 35.698 20.9352C35.1399 21.7705 34.842 22.7524 34.842 23.757M17.73 21.576L15.793 20.673M32.207 28.327L30.27 27.424M17.73 27.424L15.793 28.327M32.207 20.673L30.271 21.576M26.924 18.23L27.827 16.293M20.173 32.707L21.076 30.77M21.076 18.228L20.173 16.293M27.827 32.707L26.924 30.77" stroke="#0634BF" stroke-width="2" stroke-linecap="round" stroke-linejoin="round"/>
<path id="Vector_6" d="M24 31.4201C27.8218 31.4201 30.92 28.3219 30.92 24.5001C30.92 20.6783 27.8218 17.5801 24 17.5801C20.1782 17.5801 17.08 20.6783 17.08 24.5001C17.08 28.3219 20.1782 31.4201 24 31.4201Z" stroke="#0634BF" stroke-linecap="round" stroke-linejoin="round"/>
<path id="Vector_7" d="M25.975 20.5498H22.025V28.4498M22.025 24.4998H24.593" stroke="#0634BF" stroke-linecap="round" stroke-linejoin="round"/>
</g>
</svg>
