<svg width="48" height="49" viewBox="0 0 48 49" fill="none" xmlns="http://www.w3.org/2000/svg">
<g id="arcticons:super-backup">
<path id="Vector" d="M42.7789 40H7.22108C5.44213 40 4 41.3429 4 42.9995V43.0005C4 44.6571 5.44213 46 7.22108 46H42.7789C44.5579 46 46 44.6571 46 43.0005V42.9995C46 41.3429 44.5579 40 42.7789 40Z" stroke="#111111" stroke-width="2" stroke-linecap="round" stroke-linejoin="round"/>
<path id="Vector_2" d="M44.4762 33.5333C44.4762 33.137 44.3988 32.7446 44.2487 32.3784C44.0985 32.0123 43.8783 31.6797 43.6008 31.3995C43.3233 31.1193 42.9938 30.8971 42.6312 30.7456C42.2687 30.594 41.8801 30.5161 41.4877 30.5162H8.51231C8.11991 30.5161 7.73133 30.594 7.36875 30.7456C7.00618 30.8971 6.67673 31.1193 6.39921 31.3995C6.12169 31.6797 5.90155 32.0123 5.75135 32.3784C5.60115 32.7446 5.52385 33.137 5.52385 33.5333M4 42.9989L9.572 8.3906C9.572 7.75658 9.82139 7.14852 10.2653 6.70019C10.7092 6.25187 11.3113 6 11.9391 6H38.0609C38.6887 6 39.2908 6.25187 39.7347 6.70019C40.1786 7.14852 40.428 7.75658 40.428 8.3906L46 43M19.1394 42.9989H30.8606" stroke="#111111" stroke-width="2" stroke-linecap="round" stroke-linejoin="round"/>
<path id="Vector_3" d="M7 44C7.55228 44 8 43.5523 8 43C8 42.4477 7.55228 42 7 42C6.44772 42 6 42.4477 6 43C6 43.5523 6.44772 44 7 44Z" fill="#111111"/>
<path id="Vector_4" d="M43 44C43.5523 44 44 43.5523 44 43C44 42.4477 43.5523 42 43 42C42.4477 42 42 42.4477 42 43C42 43.5523 42.4477 44 43 44Z" fill="#111111"/>
<path id="Vector_5" d="M25.4913 27C31.233 27 35.4507 22.6406 34.9614 17.7426C34.5167 13.3037 30.2938 10 25.4913 10C20.6889 10 16.466 13.3037 16.0213 17.7426M16.0213 17.7426C15.7379 20.5762 18.3763 22.3013 18.3763 22.3013L20.4501 17.7426H16.0213Z" stroke="#0634BF" stroke-width="2" stroke-linecap="round" stroke-linejoin="round"/>
</g>
</svg>
