<svg width="49" height="37" viewBox="0 0 49 37" fill="none" xmlns="http://www.w3.org/2000/svg">
<path id="Vector" d="M1.63298 18.748L0.117222 18.1393C-0.0390739 18.53 -0.0390739 18.9661 0.117222 19.3568L1.63298 18.748ZM47.367 18.748L48.8828 19.3568C49.0391 18.9661 49.0391 18.53 48.8828 18.1393L47.367 18.748ZM24.5 33.4753C16.9408 33.4753 11.6324 29.7051 8.15661 25.8368C6.25735 23.7084 4.66413 21.3246 3.42314 18.7546C3.33222 18.5599 3.2451 18.3635 3.1618 18.1655L3.14874 18.1426L1.63298 18.748L0.117222 19.3568V19.3633L0.127022 19.3764C0.154222 19.4456 0.182537 19.5143 0.211957 19.5826L0.46676 20.1488C1.8437 23.007 3.61409 25.6576 5.72618 28.023C9.60377 32.3364 15.7256 36.748 24.5 36.748V33.4753ZM1.63298 18.748L3.14874 19.3568L3.1618 19.3306C3.24151 19.131 3.32869 18.9345 3.42314 18.7415C4.66413 16.1715 6.25735 13.7877 8.15661 11.6593C11.6291 7.79096 16.9408 4.02077 24.5 4.02077V0.748047C15.7256 0.748047 9.6005 5.15968 5.72618 9.47314C3.61406 11.8385 1.84367 14.4891 0.46676 17.3473C0.348049 17.6023 0.234777 17.8598 0.127022 18.1197L0.120488 18.1328V18.136H0.113955L1.63298 18.748ZM24.5 4.02077C32.0592 4.02077 37.3676 7.79096 40.8434 11.6593C42.7426 13.7878 44.3358 16.1715 45.5769 18.7415C45.6681 18.936 45.7552 19.1324 45.8382 19.3306L45.8513 19.3535L47.367 18.748L48.8828 18.1393V18.1328L48.873 18.1197C48.8483 18.0495 48.8199 17.9807 48.788 17.9135C48.4037 17.0504 47.9785 16.2062 47.514 15.3837C46.3163 13.2668 44.8947 11.2853 43.2738 9.47314C39.3962 5.15968 33.2744 0.748047 24.5 0.748047V4.02077ZM47.367 18.748C46.861 18.547 46.3558 18.3441 45.8513 18.1393L45.8415 18.1655L45.7925 18.28L45.5769 18.7546C44.3358 21.3246 42.7426 23.7083 40.8434 25.8368C37.3709 29.7051 32.0592 33.4753 24.5 33.4753V36.748C33.2744 36.748 39.3995 32.3364 43.2738 28.0262C45.3862 25.6599 47.1566 23.0082 48.5332 20.1488C48.6519 19.8937 48.7651 19.6362 48.873 19.3764L48.8795 19.3633V19.36L48.8828 19.3568L47.367 18.748ZM24.5 23.6571C23.2004 23.6571 21.9541 23.1399 21.0351 22.2193C20.1162 21.2987 19.5999 20.05 19.5999 18.748H16.3332C16.3332 20.918 17.1936 22.9991 18.7252 24.5335C20.2568 26.0679 22.334 26.9299 24.5 26.9299V23.6571ZM29.4001 18.748C29.4001 20.05 28.8838 21.2987 27.9649 22.2193C27.0459 23.1399 25.7996 23.6571 24.5 23.6571V26.9299C26.666 26.9299 28.7432 26.0679 30.2748 24.5335C31.8064 22.9991 32.6668 20.918 32.6668 18.748H29.4001ZM24.5 13.839C25.7996 13.839 27.0459 14.3562 27.9649 15.2768C28.8838 16.1974 29.4001 17.4461 29.4001 18.748H32.6668C32.6668 16.5781 31.8064 14.497 30.2748 12.9626C28.7432 11.4282 26.666 10.5662 24.5 10.5662V13.839ZM24.5 10.5662C22.334 10.5662 20.2568 11.4282 18.7252 12.9626C17.1936 14.497 16.3332 16.5781 16.3332 18.748H19.5999C19.5999 17.4461 20.1162 16.1974 21.0351 15.2768C21.9541 14.3562 23.2004 13.839 24.5 13.839V10.5662Z" fill="#111111"/>
</svg>
