<svg width="51" height="46" viewBox="0 0 51 46" fill="none" xmlns="http://www.w3.org/2000/svg">
<g id="Group">
<path id="Vector" d="M32.625 43.4887H2V29.1562H27.725" stroke="#111111" stroke-width="4" stroke-linejoin="round"/>
<path id="Vector_2" d="M10.2687 39.0789C10.9997 39.0789 11.7008 38.7885 12.2177 38.2716C12.7346 37.7547 13.025 37.0537 13.025 36.3227C13.025 35.5917 12.7346 34.8906 12.2177 34.3737C11.7008 33.8568 10.9997 33.5664 10.2687 33.5664C9.53774 33.5664 8.83668 33.8568 8.31978 34.3737C7.80288 34.8906 7.5125 35.5917 7.5125 36.3227C7.5125 37.0537 7.80288 37.7547 8.31978 38.2716C8.83668 38.7885 9.53774 39.0789 10.2687 39.0789Z" fill="#111111"/>
<path id="Vector_3" d="M2 29.1564L7.38761 3.48988C7.4848 3.02686 7.89317 2.69531 8.36628 2.69531H39.7958C40.2697 2.69531 40.6786 3.02805 40.7749 3.49214L46.1 29.1553" stroke="#111111" stroke-width="4" stroke-linejoin="round"/>
<path id="Vector_4" fill-rule="evenodd" clip-rule="evenodd" d="M40.8385 25.1168C40.2835 24.7492 39.7414 24.6427 39.145 24.7382C38.6369 24.82 38.0856 25.0525 37.4948 25.3024L37.4332 25.329C35.9424 25.9589 34.6292 26.9455 33.6091 28.2019C32.589 29.4584 31.8932 30.9463 31.5831 32.5347C31.2729 34.1231 31.3578 35.7634 31.8303 37.3114C32.3028 38.8593 33.1485 40.2674 34.2928 41.4118C35.4372 42.5562 36.8453 43.4019 38.3932 43.8746C39.9411 44.3472 41.5814 44.4322 43.1698 44.1221C44.7583 43.8121 46.2463 43.1165 47.5028 42.0965C48.7594 41.0765 49.746 39.7634 50.376 38.2726L50.4027 38.211C50.6526 37.6202 50.886 37.0698 50.9669 36.5608C51.0624 35.9636 50.9558 35.4224 50.5883 34.8683C50.1932 34.272 49.6557 33.9835 49.0024 33.8539C48.4207 33.7372 47.693 33.7372 46.8569 33.7372H44.9549C44.0691 33.7372 43.4737 33.7354 43.0299 33.6766C42.6063 33.6187 42.4244 33.5204 42.3049 33.401C42.1855 33.2815 42.0872 33.0996 42.0293 32.6751C41.9705 32.2322 41.9686 31.6368 41.9686 30.751V28.8491C41.9686 28.0129 41.9686 27.2852 41.8529 26.7036C41.7224 26.0503 41.4339 25.5119 40.8385 25.1168ZM37.9698 26.5979C38.6443 26.3131 39.0394 26.1505 39.3637 26.099C39.6173 26.0586 39.8093 26.088 40.0767 26.2653C40.3028 26.416 40.4259 26.5961 40.5012 26.9728C40.5876 27.4047 40.5904 27.9927 40.5904 28.9134V30.7988C40.5904 31.6249 40.5904 32.3131 40.6639 32.8598C40.7411 33.4359 40.912 33.9568 41.331 34.3758C41.749 34.7939 42.27 34.9639 42.847 35.042C43.3928 35.1155 44.082 35.1155 44.9071 35.1155H46.7926C47.7132 35.1155 48.3022 35.1192 48.7341 35.2046C49.1099 35.28 49.2909 35.4031 49.4407 35.6291C49.618 35.8974 49.6474 36.0885 49.607 36.343C49.5555 36.6665 49.3929 37.0616 49.108 37.736C48.3461 39.5372 46.9865 41.0205 45.2583 41.9361C43.5302 42.8516 41.5392 43.1433 39.621 42.762C37.8379 42.4072 36.2155 41.49 34.9922 40.1451C33.7689 38.8002 33.009 37.0985 32.8243 35.2899C32.6395 33.4813 33.0396 31.6611 33.9657 30.0966C34.8919 28.5322 36.2953 27.3059 37.9698 26.5979Z" fill="#0634BF"/>
</g>
</svg>
