<svg width="53" height="44" viewBox="0 0 53 44" fill="none" xmlns="http://www.w3.org/2000/svg">
<path d="M36.1 42.9277H1L0 38.1944C1 38.1944 1 38.1952 0.999999 38.1959L1.00023 38.1876C1.00056 38.1749 1.00133 38.1519 1.00308 38.1195C1.00658 38.0546 1.01399 37.9517 1.02962 37.8165C1.06091 37.5457 1.12489 37.147 1.25536 36.6631C1.51631 35.6953 2.04081 34.3948 3.09624 33.09C5.17746 30.517 9.49191 27.7278 18.55 27.7278C27.6081 27.7278 31.9225 30.517 34.0038 33.09C35.0592 34.3948 35.5837 35.6953 35.8446 36.6631C35.9751 37.147 36.0391 37.5457 36.0704 37.8165C36.086 37.9517 36.0934 38.0546 36.0969 38.1195C36.0987 38.1519 36.0994 38.1749 36.0998 38.1876L36.1 38.1959L36.1 38.1971L36.1 38.1984V42.9277ZM52 42.9277H43.4V38.1944V38.1764L43.3993 38.1584C43.3143 35.7974 42.7519 33.4826 41.7491 31.3763C41.1721 30.1641 40.4567 29.037 39.6212 28.0204C45.5731 28.928 48.6127 31.3071 50.1866 33.4507C51.0999 34.6947 51.5539 35.9048 51.7796 36.7971C51.8924 37.2431 51.9476 37.6077 51.9746 37.854C51.988 37.977 51.9944 38.0701 51.9974 38.1285C51.9989 38.1577 51.9995 38.1782 51.9998 38.1894L52 38.1958L52 38.197L52 38.1984V42.9277ZM34.444 1.92789H34.45C36.6182 1.92789 38.7151 2.8589 40.2741 4.54538C41.8356 6.23452 42.725 8.54115 42.725 10.9612C42.725 13.3812 41.8356 15.6879 40.2741 17.377C38.7151 19.0635 36.6182 19.9945 34.45 19.9945L34.444 19.9945C33.1389 20.0024 31.852 19.6603 30.6965 18.9992C32.0776 16.5845 32.8107 13.802 32.8107 10.9612C32.8107 8.12041 32.0776 5.33784 30.6965 2.92322C31.852 2.26207 33.1389 1.92001 34.444 1.92789ZM36.1 38.1987V38.199C36.1 38.1995 36.1 38.1995 36.1 38.1987ZM25.4111 5.91249C26.3303 7.40071 26.825 9.15786 26.825 10.9612C26.825 13.3812 25.9356 15.6879 24.3741 17.377C22.8151 19.0635 20.7182 19.9945 18.55 19.9945C16.9317 19.9945 15.3424 19.4758 13.9829 18.4931C12.6222 17.5096 11.5505 16.1032 10.9149 14.4432C10.2791 12.7828 10.1118 10.9518 10.4367 9.18463C10.7616 7.41762 11.562 5.8044 12.7259 4.54538C13.889 3.28719 15.361 2.4404 16.9509 2.0983C18.5399 1.75637 20.188 1.93098 21.6905 2.6042C23.1942 3.27797 24.4922 4.4249 25.4111 5.91249Z" stroke="black" stroke-width="2"/>
</svg>
