<svg width="54" height="47" viewBox="0 0 54 47" fill="none" xmlns="http://www.w3.org/2000/svg">
<path d="M36.1 42.9639H1L0 38.2306C1 38.2306 1 38.2313 0.999999 38.232L1.00023 38.2237C1.00056 38.211 1.00133 38.1881 1.00308 38.1556C1.00658 38.0907 1.01399 37.9879 1.02962 37.8526C1.06091 37.5818 1.12489 37.1831 1.25536 36.6992C1.51631 35.7314 2.04081 34.431 3.09624 33.1261C5.17746 30.5531 9.49191 27.7639 18.55 27.7639C27.6081 27.7639 31.9225 30.5531 34.0038 33.1261C35.0592 34.431 35.5837 35.7314 35.8446 36.6992C35.9751 37.1831 36.0391 37.5818 36.0704 37.8526C36.086 37.9879 36.0934 38.0907 36.0969 38.1556C36.0987 38.1881 36.0994 38.211 36.0998 38.2237L36.1 38.232L36.1 38.2332L36.1 38.2345V42.9639ZM52 42.9639H43.4V38.2306V38.2125L43.3993 38.1945C43.3143 35.8336 42.7519 33.5187 41.7491 31.4124C41.1721 30.2002 40.4567 29.0731 39.6212 28.0565C45.5731 28.9642 48.6127 31.3432 50.1866 33.4868C51.0999 34.7308 51.5539 35.9409 51.7796 36.8332C51.8924 37.2793 51.9476 37.6438 51.9746 37.8901C51.988 38.0132 51.9944 38.1062 51.9974 38.1646C51.9989 38.1938 51.9995 38.2143 51.9998 38.2255L52 38.2319L52 38.2331L52 38.2345V42.9639ZM34.444 1.96402H34.45C36.6182 1.96402 38.7151 2.89503 40.2741 4.58152C41.8356 6.27065 42.725 8.57728 42.725 10.9973C42.725 13.4174 41.8356 15.724 40.2741 17.4131C38.7151 19.0996 36.6182 20.0306 34.45 20.0306L34.444 20.0306C33.1389 20.0385 31.852 19.6964 30.6965 19.0353C32.0776 16.6207 32.8107 13.8381 32.8107 10.9973C32.8107 8.15654 32.0776 5.37397 30.6965 2.95935C31.852 2.2982 33.1389 1.95614 34.444 1.96402ZM36.1 38.2348V38.2351C36.1 38.2357 36.1 38.2356 36.1 38.2348ZM25.4111 5.94863C26.3303 7.43684 26.825 9.194 26.825 10.9973C26.825 13.4173 25.9356 15.724 24.3741 17.4131C22.8151 19.0996 20.7182 20.0306 18.55 20.0306C16.9317 20.0306 15.3424 19.5119 13.9829 18.5292C12.6222 17.5457 11.5505 16.1393 10.9149 14.4793C10.2791 12.8189 10.1118 10.9879 10.4367 9.22077C10.7616 7.45375 11.562 5.84053 12.7259 4.58152C13.889 3.32333 15.361 2.47653 16.9509 2.13443C18.5399 1.7925 20.188 1.96712 21.6905 2.64033C23.1942 3.3141 24.4922 4.46103 25.4111 5.94863Z" stroke="black" stroke-width="2"/>
<rect width="31" height="15" transform="translate(23 31.0361)" fill="white"/>
<path d="M26.5789 43.5361V33.716H32.6685V34.9915H28.0605V37.9836H32.2321V39.2542H28.0605V43.5361H26.5789ZM34.0063 34.9915V33.716H41.6063V34.9915H38.5423V43.5361H37.0655V34.9915H34.0063ZM43.2858 43.5361V33.716H46.7861C47.5501 33.716 48.183 33.8551 48.6849 34.1332C49.1868 34.4113 49.5624 34.7917 49.8117 35.2744C50.0611 35.7539 50.1857 36.2941 50.1857 36.8951C50.1857 37.4993 50.0595 38.0427 49.8069 38.5254C49.5576 39.0049 49.1804 39.3853 48.6753 39.6666C48.1734 39.9447 47.5421 40.0838 46.7813 40.0838H44.3742V38.8275H46.647C47.1297 38.8275 47.5213 38.7444 47.8218 38.5781C48.1223 38.4087 48.3429 38.1785 48.4835 37.8877C48.6242 37.5968 48.6945 37.2659 48.6945 36.8951C48.6945 36.5243 48.6242 36.195 48.4835 35.9073C48.3429 35.6196 48.1207 35.3943 47.817 35.2312C47.5165 35.0682 47.1201 34.9867 46.6279 34.9867H44.7674V43.5361H43.2858Z" fill="#0634BF"/>
</svg>
