<svg width="47" height="47" viewBox="0 0 47 47" fill="none" xmlns="http://www.w3.org/2000/svg">
<path id="Vector" d="M46.1134 21.4066L25.5926 0.886318C24.4116 -0.295439 22.4949 -0.295439 21.312 0.886318L17.0512 5.14794L22.4565 10.5533C23.7131 10.1293 25.1533 10.4137 26.1544 11.4149C27.1608 12.4224 27.443 13.8749 27.0085 15.1355L32.218 20.3455C33.4783 19.911 34.933 20.1917 35.939 21.2C37.3464 22.6062 37.3464 24.886 35.939 26.293C35.6045 26.6276 35.2074 26.893 34.7704 27.0741C34.3333 27.2552 33.8649 27.3485 33.3918 27.3485C32.9187 27.3485 32.4502 27.2552 32.0131 27.0741C31.5761 26.893 31.179 26.6276 30.8445 26.293C30.3421 25.7902 29.9995 25.15 29.8601 24.4529C29.7206 23.7559 29.7904 23.0332 30.0608 22.3758L25.2028 17.5177L25.202 30.3037C25.5545 30.4772 25.8763 30.7071 26.1548 30.9843C27.5614 32.3905 27.5614 34.6695 26.1548 36.0788C24.7478 37.4851 22.4673 37.4851 21.0618 36.0788C19.6552 34.6699 19.6552 32.3909 21.0618 30.9843C21.3988 30.6467 21.7997 30.3797 22.241 30.1987V17.2943C21.7993 17.1138 21.3984 16.8465 21.0618 16.5083C19.9963 15.4435 19.7397 13.8797 20.2863 12.5706L14.9573 7.24152L0.886568 21.3117C0.318899 21.8795 0 22.6496 0 23.4525C0 24.2555 0.318899 25.0255 0.886568 25.5934L21.4077 46.1137C22.5895 47.2954 24.5054 47.2954 25.689 46.1137L46.1137 25.6887C46.6813 25.1207 47.0001 24.3506 47 23.5476C46.9999 22.7446 46.681 21.9745 46.1134 21.4066Z" fill="#F34F29"/>
</svg>
