<svg width="21" height="19" viewBox="0 0 21 19" fill="none" xmlns="http://www.w3.org/2000/svg">
<path id="Vector" d="M18.9412 16.7879V12.2331H13.6471M2 2.21235V6.76721H7.29412M18.8755 8.58916C18.6539 7.07458 17.8851 5.65809 16.6777 4.53955C15.4702 3.42101 13.8851 2.65687 12.1458 2.35493C10.4066 2.053 8.60107 2.22852 6.98398 2.85672C5.36688 3.48492 4.01986 4.5341 3.13294 5.85624M2.06565 10.4111C2.28729 11.9257 3.05606 13.3422 4.26349 14.4607C5.47093 15.5793 7.05609 16.3434 8.79534 16.6453C10.5346 16.9473 12.3401 16.7717 13.9572 16.1435C15.5743 15.5153 16.9213 14.4662 17.8082 13.144" stroke="#3256CA" stroke-width="2.82353" stroke-linecap="round" stroke-linejoin="round"/>
</svg>
