<svg width="11" height="22" viewBox="0 0 11 22" fill="none" xmlns="http://www.w3.org/2000/svg">
<path d="M0.42064 21.5157C0.151305 21.2056 6.55651e-07 20.785 6.55651e-07 20.3464C6.55651e-07 19.9078 0.151305 19.4872 0.42064 19.1771L7.53218 10.99L0.42064 2.80297C0.158938 2.49103 0.0141293 2.07324 0.0174023 1.63958C0.0206763 1.20592 0.171769 0.791086 0.438141 0.48443C0.704511 0.177774 1.06485 0.00383317 1.44154 6.42538e-05C1.81823 -0.00370467 2.18114 0.163005 2.4521 0.464284L10.5794 9.82067C10.8487 10.1308 11 10.5514 11 10.99C11 11.4286 10.8487 11.8492 10.5794 12.1594L2.4521 21.5157C2.18268 21.8258 1.81732 22 1.43637 22C1.05541 22 0.690056 21.8258 0.42064 21.5157Z" fill="#0632BE"/>
</svg>
