<svg width="23" height="23" viewBox="0 0 23 23" fill="none" xmlns="http://www.w3.org/2000/svg">
<g id="Group 11">
<g id="Vector 38">
<path d="M15.3306 4.40825L15.7827 2.59963L19.4 0.338867L22.1129 3.05179L19.8521 6.66902L18.0435 7.12117L15.3306 9.83409L12.6177 7.12117L15.3306 4.40825Z" fill="#0634BF"/>
<path d="M9.90474 15.7121L6.73966 12.547L1.59343 17.7713C0.754005 18.6235 0.75916 19.9932 1.60497 20.839L1.69062 20.9247C2.54549 21.7795 3.9331 21.7743 4.7815 20.913L9.90474 15.7121Z" fill="#0634BF"/>
</g>
<path id="Vector 39" d="M16.9565 20.445L6.28754 9.38128C1.43518 9.19426 -0.018055 7.77203 0.409548 3.5034L3.57462 6.21633L6.28754 3.95556L3.57462 0.790392C7.8041 0.164236 9.10736 1.6652 9.00047 6.66836L20.0645 17.3369C20.9414 18.1824 20.9395 19.5973 20.0782 20.4586C19.2169 21.3199 17.802 21.3218 16.9565 20.445Z" fill="#0634BF"/>
</g>
</svg>
