<svg width="26" height="26" viewBox="0 0 26 26" fill="none" xmlns="http://www.w3.org/2000/svg">
<path id="feWordpress2" fill-rule="evenodd" clip-rule="evenodd" d="M13 0C5.8318 0 0 5.8318 0 13C0 20.1682 5.8318 26 13 26C20.1682 26 26 20.1682 26 13C26 5.8318 20.1682 0 13 0ZM13 25.4046C6.1607 25.4046 0.5967 19.8393 0.5967 13C0.5967 6.1607 6.1607 0.5954 13 0.5954C19.8393 0.5954 25.4046 6.1594 25.4046 13C25.4046 19.838 19.8406 25.4046 13 25.4046ZM1.8486 13C1.84834 15.0942 2.43774 17.1462 3.54934 18.9211C4.66094 20.696 6.24981 22.122 8.1341 23.036L2.8132 8.463C2.17599 9.89061 1.84729 11.4366 1.8486 13ZM20.5296 12.4384C20.5296 11.0604 20.033 10.1062 19.6092 9.3626C19.0437 8.4435 18.5133 7.6661 18.5133 6.747C18.5133 5.7226 19.2907 4.7684 20.3853 4.7684C20.436 4.7684 20.4828 4.7736 20.5309 4.7775C18.4775 2.88971 15.7893 1.84327 13 1.846C11.1516 1.84508 9.3321 2.3041 7.70537 3.18169C6.07863 4.05928 4.69583 5.32786 3.6816 6.8731C3.9442 6.8809 4.1912 6.8861 4.4005 6.8861C5.5666 6.8861 7.3723 6.7444 7.3723 6.7444C7.9729 6.7093 8.0444 7.592 7.4438 7.6635C7.4438 7.6635 6.8393 7.735 6.1672 7.7701L10.2284 19.8497L12.6685 12.5307L10.9317 7.7701C10.3311 7.735 9.7617 7.6635 9.7617 7.6635C9.1611 7.6284 9.2313 6.7093 9.8332 6.7444C9.8332 6.7444 11.674 6.8874 12.7699 6.8874C13.936 6.8874 15.7417 6.7444 15.7417 6.7444C16.3436 6.7093 16.4138 7.592 15.8132 7.6635C15.8132 7.6635 15.2087 7.735 14.5366 7.7701L18.5666 19.7574L19.6807 16.0407C20.1617 14.4976 20.5283 13.39 20.5283 12.4358M13.1963 13.9737L9.8501 23.6977C12.0965 24.3603 14.4947 24.298 16.7037 23.5196C16.6725 23.4704 16.6455 23.4187 16.6231 23.3649L13.1963 13.9737ZM22.7864 7.6479C22.8345 8.0041 22.8618 8.385 22.8618 8.7945C22.8618 9.9255 22.6499 11.1982 22.0129 12.7894L18.6069 22.6382C20.2939 21.6576 21.6938 20.2512 22.6668 18.5598C23.6398 16.8685 24.1517 14.9513 24.1514 13C24.1545 11.1299 23.685 9.288 22.7864 7.6479Z" fill="#0634BF"/>
</svg>
