<svg width="55" height="55" viewBox="0 0 55 55" fill="none" xmlns="http://www.w3.org/2000/svg">
<path d="M21.6389 19.0837H10.4167M10.4167 10.667H18.8333M44.0833 44.3337L31.4583 35.917L24.4444 41.5281L10.4167 30.3059M37.0694 24.6948C35.2092 24.6948 33.4252 23.9558 32.1099 22.6404C30.7945 21.3251 30.0555 19.5411 30.0555 17.6809C30.0555 15.8207 30.7945 14.0367 32.1099 12.7213C33.4252 11.406 35.2092 10.667 37.0694 10.667C38.9296 10.667 40.7136 11.406 42.029 12.7213C43.3444 14.0367 44.0833 15.8207 44.0833 17.6809C44.0833 19.5411 43.3444 21.3251 42.029 22.6404C40.7136 23.9558 38.9296 24.6948 37.0694 24.6948Z" stroke="#111111" stroke-width="4" stroke-linecap="round" stroke-linejoin="round"/>
<path d="M2 51.0667V3.93333C2 3.48689 2.17735 3.05872 2.49304 2.74304C2.80872 2.42735 3.23689 2.25 3.68333 2.25H50.8167C51.2631 2.25 51.6913 2.42735 52.007 2.74304C52.3227 3.05872 52.5 3.48689 52.5 3.93333V51.0667C52.5 51.5131 52.3227 51.9413 52.007 52.257C51.6913 52.5727 51.2631 52.75 50.8167 52.75H3.68333C3.23689 52.75 2.80872 52.5727 2.49304 52.257C2.17735 51.9413 2 51.5131 2 51.0667Z" stroke="#111111" stroke-width="4"/>
</svg>
