<svg width="50" height="51" viewBox="0 0 50 51" fill="none" xmlns="http://www.w3.org/2000/svg">
<path d="M46.4286 50.5H3.57143C2.62452 50.4991 1.71666 50.1225 1.04709 49.4529C0.377523 48.7833 0.000945494 47.8755 0 46.9286V4.07143C0.000945494 3.12452 0.377523 2.21666 1.04709 1.54709C1.71666 0.877523 2.62452 0.500945 3.57143 0.5H46.4286C47.3755 0.500945 48.2833 0.877523 48.9529 1.54709C49.6225 2.21666 49.9991 3.12452 50 4.07143V46.9286C49.9991 47.8755 49.6225 48.7833 48.9529 49.4529C48.2833 50.1225 47.3755 50.4991 46.4286 50.5ZM3.57143 4.07143V46.9286H46.4286V4.07143H3.57143Z" fill="#111111"/>
<path d="M19.6429 9.42871H23.2143V21.9287H19.6429V9.42871ZM10.7143 9.42871H14.2857V21.9287H10.7143V9.42871ZM35.7143 21.9287H32.1429C31.196 21.9278 30.2881 21.5512 29.6185 20.8816C28.949 20.2121 28.5724 19.3042 28.5714 18.3573V13.0001C28.5724 12.0532 28.949 11.1454 29.6185 10.4758C30.2881 9.80623 31.196 9.42966 32.1429 9.42871H35.7143C36.6612 9.42966 37.5691 9.80623 38.2386 10.4758C38.9082 11.1454 39.2848 12.0532 39.2857 13.0001V18.3573C39.2848 19.3042 38.9082 20.2121 38.2386 20.8816C37.5691 21.5512 36.6612 21.9278 35.7143 21.9287ZM32.1429 13.0001V18.3573H35.7143V13.0001H32.1429ZM35.7143 29.0716H39.2857V41.5716H35.7143V29.0716ZM10.7143 29.0716H14.2857V41.5716H10.7143V29.0716ZM26.7857 41.5716H23.2143C22.2674 41.5706 21.3595 41.194 20.69 40.5245C20.0204 39.8549 19.6438 38.9471 19.6429 38.0001V32.643C19.6438 31.6961 20.0204 30.7882 20.69 30.1187C21.3595 29.4491 22.2674 29.0725 23.2143 29.0716H26.7857C27.7326 29.0725 28.6405 29.4491 29.3101 30.1187C29.9796 30.7882 30.3562 31.6961 30.3572 32.643V38.0001C30.3562 38.9471 29.9796 39.8549 29.3101 40.5245C28.6405 41.194 27.7326 41.5706 26.7857 41.5716ZM23.2143 32.643V38.0001H26.7857V32.643H23.2143Z" fill="#0634BF"/>
</svg>
