<svg width="48" height="49" viewBox="0 0 48 49" fill="none" xmlns="http://www.w3.org/2000/svg">
<path d="M24 48.5C20.68 48.5 17.56 47.8696 14.64 46.6088C11.72 45.348 9.18 43.6384 7.02 41.48C4.86 39.32 3.1504 36.78 1.8912 33.86C0.632 30.94 0.0016 27.82 0 24.5C0 21.18 0.6304 18.06 1.8912 15.14C3.152 12.22 4.8616 9.68 7.02 7.52C9.18 5.36 11.72 3.6504 14.64 2.3912C17.56 1.132 20.68 0.5016 24 0.5C27.52 0.5 30.8504 1.22 33.9912 2.66C37.132 4.1 39.8416 6.14 42.12 8.78L24 26.9V5.3C18.64 5.3 14.1 7.16 10.38 10.88C6.66 14.6 4.8 19.14 4.8 24.5C4.8 29.86 6.66 34.4 10.38 38.12C14.1 41.84 18.64 43.7 24 43.7C26.76 43.7 29.4 43.1296 31.92 41.9888C34.44 40.848 36.6 39.2184 38.4 37.1V43.7C36.28 45.22 34 46.4 31.56 47.24C29.12 48.08 26.6 48.5 24 48.5ZM43.2 38.9V19.7H48V38.9H43.2ZM45.6 48.5C44.92 48.5 44.3496 48.2696 43.8888 47.8088C43.428 47.348 43.1984 46.7784 43.2 46.1C43.2 45.42 43.4304 44.8496 43.8912 44.3888C44.352 43.928 44.9216 43.6984 45.6 43.7C46.28 43.7 46.8504 43.9304 47.3112 44.3912C47.772 44.852 48.0016 45.4216 48 46.1C48 46.78 47.7696 47.3504 47.3088 47.8112C46.848 48.272 46.2784 48.5016 45.6 48.5Z" fill="#111111"/>
</svg>
