<svg width="53" height="51" viewBox="0 0 53 51" fill="none" xmlns="http://www.w3.org/2000/svg">
<path d="M2 12.0045H50.9169M9.33753 7.13726L9.36199 7.11035M16.6751 7.13726L16.6995 7.11035M24.0126 7.13726L24.037 7.11035M36.2418 46.124C34.6525 44.5023 33.7726 42.3157 33.7955 40.0452C33.8069 38.921 34.0395 37.81 34.4803 36.7757C34.921 35.7414 35.5611 34.804 36.3641 34.0171C37.1671 33.2301 38.1172 32.6091 39.1602 32.1894C40.2032 31.7696 41.3186 31.5594 42.4429 31.5708C43.5671 31.5821 44.6781 31.8148 45.7124 32.2555C46.7467 32.6962 47.6841 33.3364 48.471 34.1394L36.2418 46.124ZM36.2418 46.124C37.0243 46.9453 37.9624 47.6029 39.0013 48.0586C40.0402 48.5142 41.1594 48.7588 42.2937 48.7782C43.428 48.7975 44.5548 48.5912 45.6087 48.1712C46.6625 47.7512 47.6224 47.126 48.4325 46.3318C49.2426 45.5376 49.8867 44.5902 50.3275 43.5449C50.7682 42.4996 50.9968 41.3771 51 40.2426C51.0031 39.1081 50.7807 37.9844 50.3457 36.9366C49.9107 35.8889 49.2718 34.938 48.4661 34.1394" stroke="#0634BF" stroke-width="3.5" stroke-linecap="round" stroke-linejoin="round"/>
<path d="M26.4584 46.2459H6.89168C5.59433 46.2459 4.35011 45.7305 3.43274 44.8131C2.51537 43.8958 2 42.6515 2 41.3542V7.11239C2 5.81503 2.51537 4.57081 3.43274 3.65344C4.35011 2.73608 5.59433 2.2207 6.89168 2.2207H46.0252C47.3225 2.2207 48.5667 2.73608 49.4841 3.65344C50.4015 4.57081 50.9168 5.81503 50.9168 7.11239V26.6791" stroke="#111111" stroke-width="3.5" stroke-linecap="round"/>
</svg>
