<svg width="54" height="51" viewBox="0 0 54 51" fill="none" xmlns="http://www.w3.org/2000/svg">
<path d="M54 0.5V27.349C53.5078 26.8628 52.9805 26.4288 52.418 26.0469C51.8555 25.6649 51.2578 25.3177 50.625 25.0052V13.8333H3.375V40.5H32.0625L28.6875 43.8333H0V0.5H54ZM50.625 10.5V3.83333H3.375V10.5H50.625ZM37.2041 35.3438C37.2041 34.1979 37.4238 33.1302 37.8633 32.1406C38.3027 31.151 38.9004 30.2917 39.6562 29.5625C40.4121 28.8333 41.291 28.2517 42.293 27.8177C43.2949 27.3837 44.3848 27.1753 45.5625 27.1927C46.7402 27.1927 47.8389 27.4097 48.8584 27.8438C49.8779 28.2778 50.7656 28.8681 51.5215 29.6146C52.2773 30.3611 52.875 31.2465 53.3145 32.2708C53.7539 33.2951 53.9736 34.3802 53.9736 35.526C53.9736 36.6545 53.7627 37.7135 53.3408 38.7031C52.9189 39.6927 52.3301 40.5694 51.5742 41.3333C50.8184 42.0972 49.9482 42.6875 48.9639 43.1042C47.9795 43.5208 46.8984 43.7378 45.7207 43.7552C44.877 43.7552 44.0508 43.6424 43.2422 43.4167C42.4336 43.191 41.6689 42.8524 40.9482 42.401L35.6484 47.6354C35.2441 48.0347 34.8486 48.434 34.4619 48.8333C34.0752 49.2326 33.6709 49.6233 33.249 50.0052C33.0732 50.1615 32.9062 50.283 32.748 50.3698C32.5898 50.4566 32.3789 50.5 32.1152 50.5C31.6582 50.5 31.2539 50.3264 30.9023 49.9792C30.5508 49.6319 30.375 49.2326 30.375 48.7812C30.375 48.5382 30.4189 48.3385 30.5068 48.1823C30.5947 48.026 30.7178 47.8524 30.876 47.6615C31.2451 47.2448 31.6318 46.8455 32.0361 46.4635C32.4404 46.0816 32.8535 45.691 33.2754 45.2917C34.1719 44.4062 35.0508 43.5295 35.9121 42.6615C36.7734 41.7934 37.6611 40.9167 38.5752 40.0312C38.1357 39.3194 37.8018 38.5729 37.5732 37.7917C37.3447 37.0104 37.2217 36.1944 37.2041 35.3438ZM40.5791 35.6562C40.5791 36.316 40.7021 36.9323 40.9482 37.5052C41.1943 38.0781 41.5371 38.5816 41.9766 39.0156C42.416 39.4497 42.9258 39.7882 43.5059 40.0312C44.0859 40.2743 44.7188 40.3958 45.4043 40.3958C46.0898 40.3958 46.7402 40.2656 47.3555 40.0052C47.9707 39.7448 48.5332 39.3715 49.043 38.8854C49.5527 38.3993 49.9395 37.8611 50.2031 37.2708C50.4668 36.6806 50.6162 36.0382 50.6514 35.3438C50.6514 34.7188 50.5195 34.1198 50.2559 33.5469C49.9922 32.974 49.623 32.4531 49.1484 31.9844C48.6738 31.5156 48.1465 31.151 47.5664 30.8906C46.9863 30.6302 46.3711 30.4913 45.7207 30.474C45.0352 30.474 44.3848 30.6128 43.7695 30.8906C43.1543 31.1684 42.6094 31.559 42.1348 32.0625C41.6602 32.566 41.2822 33.1128 41.001 33.7031C40.7197 34.2934 40.5791 34.9444 40.5791 35.6562Z" fill="#111111"/>
<path d="M20.1667 28.1667V27.1111C20.1667 26.5512 20.3891 26.0142 20.785 25.6183C21.1809 25.2224 21.7179 25 22.2778 25H30.7222C31.2821 25 31.8191 25.2224 32.215 25.6183C32.6109 26.0142 32.8333 26.5512 32.8333 27.1111V28.1667M26.5 21.8333V25M17 30.2778C17 29.7179 17.2224 29.1809 17.6183 28.785C18.0142 28.3891 18.5512 28.1667 19.1111 28.1667H21.2222C21.7821 28.1667 22.3191 28.3891 22.715 28.785C23.1109 29.1809 23.3333 29.7179 23.3333 30.2778V32.3889C23.3333 32.9488 23.1109 33.4858 22.715 33.8817C22.3191 34.2776 21.7821 34.5 21.2222 34.5H19.1111C18.5512 34.5 18.0142 34.2776 17.6183 33.8817C17.2224 33.4858 17 32.9488 17 32.3889V30.2778ZM29.6667 30.2778C29.6667 29.7179 29.8891 29.1809 30.285 28.785C30.6809 28.3891 31.2179 28.1667 31.7778 28.1667H33.8889C34.4488 28.1667 34.9858 28.3891 35.3817 28.785C35.7776 29.1809 36 29.7179 36 30.2778V32.3889C36 32.9488 35.7776 33.4858 35.3817 33.8817C34.9858 34.2776 34.4488 34.5 33.8889 34.5H31.7778C31.2179 34.5 30.6809 34.2776 30.285 33.8817C29.8891 33.4858 29.6667 32.9488 29.6667 32.3889V30.2778ZM23.3333 17.6111C23.3333 17.0512 23.5558 16.5142 23.9517 16.1183C24.3476 15.7224 24.8845 15.5 25.4444 15.5H27.5556C28.1155 15.5 28.6524 15.7224 29.0483 16.1183C29.4442 16.5142 29.6667 17.0512 29.6667 17.6111V19.7222C29.6667 20.2821 29.4442 20.8191 29.0483 21.215C28.6524 21.6109 28.1155 21.8333 27.5556 21.8333H25.4444C24.8845 21.8333 24.3476 21.6109 23.9517 21.215C23.5558 20.8191 23.3333 20.2821 23.3333 19.7222V17.6111Z" stroke="#0634BF" stroke-width="2" stroke-linecap="round" stroke-linejoin="round"/>
</svg>
